<svg width="204" height="279" viewBox="0 0 204 279" fill="none" xmlns="http://www.w3.org/2000/svg">
<rect width="204" height="279" fill="white"/>
<rect width="204" height="279" stroke="#FFE600"/>
<line x1="12" y1="186.5" x2="192" y2="186.5" stroke="#FFE600"/>
<path d="M42.8794 208L40.8908 200.727H41.7857L43.3056 206.651H43.3766L44.9249 200.727H45.9192L47.4675 206.651H47.5385L49.0584 200.727H49.9533L47.9647 208H47.0556L45.4505 202.205H45.3936L43.7885 208H42.8794ZM52.7161 208.114C52.1905 208.114 51.7372 207.998 51.356 207.766C50.9772 207.531 50.6848 207.205 50.4789 206.786C50.2753 206.364 50.1735 205.874 50.1735 205.315C50.1735 204.757 50.2753 204.264 50.4789 203.838C50.6848 203.41 50.9713 203.076 51.3382 202.837C51.7076 202.595 52.1384 202.474 52.6309 202.474C52.915 202.474 53.1955 202.522 53.4725 202.616C53.7495 202.711 54.0016 202.865 54.2289 203.078C54.4561 203.289 54.6373 203.568 54.7722 203.916C54.9071 204.264 54.9746 204.693 54.9746 205.202V205.557H50.7701V204.832H54.1223C54.1223 204.525 54.0608 204.25 53.9377 204.009C53.8169 203.767 53.6441 203.576 53.4192 203.437C53.1967 203.297 52.9339 203.227 52.6309 203.227C52.2971 203.227 52.0082 203.31 51.7644 203.476C51.5229 203.639 51.3371 203.852 51.2069 204.115C51.0766 204.378 51.0115 204.66 51.0115 204.96V205.443C51.0115 205.855 51.0826 206.204 51.2246 206.491C51.369 206.775 51.5691 206.991 51.8248 207.141C52.0804 207.287 52.3775 207.361 52.7161 207.361C52.9363 207.361 53.1351 207.33 53.3127 207.268C53.4926 207.205 53.6477 207.11 53.7779 206.984C53.9081 206.857 54.0087 206.698 54.0797 206.509L54.8894 206.736C54.8042 207.01 54.6609 207.252 54.4597 207.46C54.2585 207.666 54.0099 207.827 53.714 207.943C53.418 208.057 53.0854 208.114 52.7161 208.114ZM59.9 204.719V208H59.062V200.727H59.9V203.398H59.9711C60.0989 203.116 60.2907 202.892 60.5463 202.727C60.8044 202.558 61.1477 202.474 61.5762 202.474C61.9479 202.474 62.2734 202.549 62.5527 202.698C62.8321 202.845 63.0487 203.071 63.2026 203.376C63.3588 203.679 63.437 204.065 63.437 204.534V208H62.5989V204.591C62.5989 204.158 62.4864 203.823 62.2615 203.586C62.039 203.347 61.7301 203.227 61.3347 203.227C61.0601 203.227 60.8139 203.285 60.5961 203.401C60.3806 203.517 60.2102 203.687 60.0847 203.909C59.9616 204.132 59.9 204.402 59.9 204.719ZM67.1861 208.114C66.6937 208.114 66.2616 207.996 65.8899 207.762C65.5206 207.528 65.2318 207.2 65.0234 206.778C64.8175 206.357 64.7145 205.865 64.7145 205.301C64.7145 204.733 64.8175 204.237 65.0234 203.813C65.2318 203.389 65.5206 203.06 65.8899 202.826C66.2616 202.592 66.6937 202.474 67.1861 202.474C67.6785 202.474 68.1094 202.592 68.4787 202.826C68.8504 203.06 69.1392 203.389 69.3452 203.813C69.5535 204.237 69.6577 204.733 69.6577 205.301C69.6577 205.865 69.5535 206.357 69.3452 206.778C69.1392 207.2 68.8504 207.528 68.4787 207.762C68.1094 207.996 67.6785 208.114 67.1861 208.114ZM67.1861 207.361C67.5601 207.361 67.8679 207.265 68.1094 207.073C68.3509 206.881 68.5296 206.629 68.6456 206.317C68.7616 206.004 68.8196 205.666 68.8196 205.301C68.8196 204.937 68.7616 204.597 68.6456 204.282C68.5296 203.967 68.3509 203.713 68.1094 203.518C67.8679 203.324 67.5601 203.227 67.1861 203.227C66.812 203.227 66.5043 203.324 66.2628 203.518C66.0213 203.713 65.8426 203.967 65.7266 204.282C65.6106 204.597 65.5526 204.937 65.5526 205.301C65.5526 205.666 65.6106 206.004 65.7266 206.317C65.8426 206.629 66.0213 206.881 66.2628 207.073C66.5043 207.265 66.812 207.361 67.1861 207.361ZM74.8006 203.767L74.0478 203.98C74.0004 203.855 73.9306 203.733 73.8382 203.614C73.7483 203.494 73.6252 203.394 73.4689 203.316C73.3127 203.238 73.1126 203.199 72.8688 203.199C72.535 203.199 72.2568 203.276 72.0343 203.43C71.8141 203.581 71.704 203.774 71.704 204.009C71.704 204.217 71.7798 204.381 71.9313 204.502C72.0828 204.623 72.3195 204.723 72.6415 204.804L73.4512 205.003C73.9389 205.121 74.3023 205.302 74.5414 205.546C74.7805 205.788 74.9 206.099 74.9 206.48C74.9 206.793 74.8101 207.072 74.6301 207.318C74.4526 207.564 74.204 207.759 73.8844 207.901C73.5648 208.043 73.1931 208.114 72.7694 208.114C72.213 208.114 71.7525 207.993 71.388 207.751C71.0234 207.51 70.7926 207.157 70.6955 206.693L71.4909 206.494C71.5667 206.788 71.7099 207.008 71.9206 207.155C72.1337 207.302 72.4119 207.375 72.7551 207.375C73.1458 207.375 73.4559 207.292 73.6855 207.126C73.9176 206.958 74.0336 206.757 74.0336 206.523C74.0336 206.333 73.9673 206.175 73.8347 206.047C73.7021 205.917 73.4985 205.82 73.2239 205.756L72.3148 205.543C71.8153 205.424 71.4483 205.241 71.214 204.992C70.9819 204.741 70.8659 204.428 70.8659 204.051C70.8659 203.743 70.9524 203.471 71.1252 203.234C71.3004 202.998 71.5383 202.812 71.839 202.677C72.142 202.542 72.4853 202.474 72.8688 202.474C73.4086 202.474 73.8323 202.593 74.1401 202.83C74.4502 203.066 74.6704 203.379 74.8006 203.767ZM78.5337 202.545V203.256H75.707V202.545H78.5337ZM76.5309 201.239H77.369V206.438C77.369 206.674 77.4033 206.852 77.4719 206.97C77.543 207.086 77.6329 207.164 77.7418 207.205C77.8531 207.242 77.9703 207.261 78.0934 207.261C78.1857 207.261 78.2615 207.257 78.3207 207.247C78.3799 207.235 78.4272 207.226 78.4627 207.219L78.6332 207.972C78.5763 207.993 78.497 208.014 78.3952 208.036C78.2934 208.059 78.1644 208.071 78.0082 208.071C77.7714 208.071 77.5394 208.02 77.3121 207.918C77.0872 207.817 76.9002 207.661 76.7511 207.453C76.6043 207.245 76.5309 206.982 76.5309 206.665V201.239ZM84.212 208.128C83.8664 208.128 83.5527 208.063 83.271 207.933C82.9892 207.8 82.7655 207.609 82.5998 207.361C82.4341 207.11 82.3512 206.807 82.3512 206.452C82.3512 206.139 82.4128 205.886 82.5359 205.692C82.659 205.495 82.8235 205.341 83.0295 205.23C83.2354 205.119 83.4627 205.036 83.7113 204.982C83.9622 204.925 84.2144 204.88 84.4677 204.847C84.7991 204.804 85.0678 204.772 85.2738 204.751C85.4821 204.727 85.6336 204.688 85.7283 204.634C85.8254 204.579 85.8739 204.484 85.8739 204.349V204.321C85.8739 203.971 85.7781 203.698 85.5863 203.504C85.3969 203.31 85.1093 203.213 84.7234 203.213C84.3233 203.213 84.0096 203.301 83.7823 203.476C83.555 203.651 83.3952 203.838 83.3029 204.037L82.5075 203.753C82.6495 203.421 82.8389 203.163 83.0756 202.979C83.3147 202.792 83.5752 202.661 83.8569 202.588C84.141 202.512 84.4203 202.474 84.695 202.474C84.8701 202.474 85.0714 202.496 85.2987 202.538C85.5283 202.579 85.7496 202.663 85.9627 202.79C86.1781 202.918 86.3569 203.111 86.4989 203.369C86.641 203.627 86.712 203.973 86.712 204.406V208H85.8739V207.261H85.8313C85.7745 207.38 85.6798 207.506 85.5472 207.641C85.4147 207.776 85.2383 207.891 85.0181 207.986C84.7979 208.08 84.5292 208.128 84.212 208.128ZM84.3398 207.375C84.6713 207.375 84.9506 207.31 85.1779 207.18C85.4076 207.049 85.5804 206.881 85.6964 206.675C85.8147 206.469 85.8739 206.253 85.8739 206.026V205.259C85.8384 205.301 85.7603 205.34 85.6396 205.376C85.5212 205.409 85.3839 205.438 85.2276 205.464C85.0737 205.488 84.9234 205.509 84.7766 205.528C84.6322 205.545 84.515 205.559 84.4251 205.571C84.2073 205.599 84.0037 205.646 83.8143 205.71C83.6272 205.771 83.4757 205.865 83.3597 205.99C83.2461 206.113 83.1893 206.281 83.1893 206.494C83.1893 206.786 83.297 207.006 83.5124 207.155C83.7302 207.302 84.006 207.375 84.3398 207.375ZM88.2417 208V202.545H89.0513V203.369H89.1081C89.2076 203.099 89.3875 202.88 89.6479 202.712C89.9083 202.544 90.2019 202.46 90.5286 202.46C90.5901 202.46 90.6671 202.461 90.7594 202.464C90.8517 202.466 90.9216 202.47 90.9689 202.474V203.327C90.9405 203.32 90.8754 203.309 90.7736 203.295C90.6742 203.278 90.5688 203.27 90.4576 203.27C90.1924 203.27 89.9557 203.326 89.7473 203.437C89.5414 203.546 89.378 203.697 89.2573 203.891C89.1389 204.083 89.0797 204.302 89.0797 204.548V208H88.2417ZM94.6763 202.545V203.256H91.8496V202.545H94.6763ZM92.6735 201.239H93.5115V206.438C93.5115 206.674 93.5459 206.852 93.6145 206.97C93.6855 207.086 93.7755 207.164 93.8844 207.205C93.9957 207.242 94.1129 207.261 94.236 207.261C94.3283 207.261 94.4041 207.257 94.4632 207.247C94.5224 207.235 94.5698 207.226 94.6053 207.219L94.7757 207.972C94.7189 207.993 94.6396 208.014 94.5378 208.036C94.436 208.059 94.307 208.071 94.1507 208.071C93.914 208.071 93.682 208.02 93.4547 207.918C93.2298 207.817 93.0428 207.661 92.8936 207.453C92.7469 207.245 92.6735 206.982 92.6735 206.665V201.239ZM101.036 208.114C100.511 208.114 100.057 207.998 99.6763 207.766C99.2975 207.531 99.0051 207.205 98.7992 206.786C98.5956 206.364 98.4938 205.874 98.4938 205.315C98.4938 204.757 98.5956 204.264 98.7992 203.838C99.0051 203.41 99.2916 203.076 99.6586 202.837C100.028 202.595 100.459 202.474 100.951 202.474C101.235 202.474 101.516 202.522 101.793 202.616C102.07 202.711 102.322 202.865 102.549 203.078C102.776 203.289 102.958 203.568 103.093 203.916C103.227 204.264 103.295 204.693 103.295 205.202V205.557H99.0904V204.832H102.443C102.443 204.525 102.381 204.25 102.258 204.009C102.137 203.767 101.964 203.576 101.74 203.437C101.517 203.297 101.254 203.227 100.951 203.227C100.617 203.227 100.329 203.31 100.085 203.476C99.8432 203.639 99.6574 203.852 99.5272 204.115C99.397 204.378 99.3319 204.66 99.3319 204.96V205.443C99.3319 205.855 99.4029 206.204 99.5449 206.491C99.6893 206.775 99.8894 206.991 100.145 207.141C100.401 207.287 100.698 207.361 101.036 207.361C101.257 207.361 101.455 207.33 101.633 207.268C101.813 207.205 101.968 207.11 102.098 206.984C102.228 206.857 102.329 206.698 102.4 206.509L103.21 206.736C103.124 207.01 102.981 207.252 102.78 207.46C102.579 207.666 102.33 207.827 102.034 207.943C101.738 208.057 101.406 208.114 101.036 208.114ZM105.048 202.545L106.355 204.776L107.662 202.545H108.628L106.866 205.273L108.628 208H107.662L106.355 205.884L105.048 208H104.082L105.815 205.273L104.082 202.545H105.048ZM110.662 204.719V208H109.824V200.727H110.662V203.398H110.733C110.861 203.116 111.052 202.892 111.308 202.727C111.566 202.558 111.909 202.474 112.338 202.474C112.71 202.474 113.035 202.549 113.314 202.698C113.594 202.845 113.81 203.071 113.964 203.376C114.121 203.679 114.199 204.065 114.199 204.534V208H113.361V204.591C113.361 204.158 113.248 203.823 113.023 203.586C112.801 203.347 112.492 203.227 112.096 203.227C111.822 203.227 111.576 203.285 111.358 203.401C111.142 203.517 110.972 203.687 110.846 203.909C110.723 204.132 110.662 204.402 110.662 204.719ZM115.732 208V202.545H116.57V208H115.732ZM116.158 201.636C115.995 201.636 115.854 201.581 115.735 201.469C115.619 201.358 115.561 201.224 115.561 201.068C115.561 200.912 115.619 200.778 115.735 200.667C115.854 200.556 115.995 200.5 116.158 200.5C116.321 200.5 116.461 200.556 116.577 200.667C116.695 200.778 116.755 200.912 116.755 201.068C116.755 201.224 116.695 201.358 116.577 201.469C116.461 201.581 116.321 201.636 116.158 201.636ZM118.219 208V200.727H119.057V203.412H119.128C119.189 203.317 119.274 203.196 119.383 203.05C119.495 202.901 119.653 202.768 119.859 202.652C120.068 202.534 120.349 202.474 120.704 202.474C121.164 202.474 121.568 202.589 121.919 202.819C122.269 203.049 122.543 203.374 122.739 203.795C122.936 204.217 123.034 204.714 123.034 205.287C123.034 205.865 122.936 206.365 122.739 206.789C122.543 207.21 122.27 207.537 121.922 207.769C121.574 207.999 121.173 208.114 120.719 208.114C120.368 208.114 120.088 208.056 119.877 207.94C119.666 207.821 119.504 207.687 119.39 207.538C119.277 207.387 119.189 207.261 119.128 207.162H119.028V208H118.219ZM119.042 205.273C119.042 205.685 119.103 206.048 119.224 206.363C119.344 206.675 119.521 206.92 119.753 207.098C119.985 207.273 120.269 207.361 120.605 207.361C120.955 207.361 121.248 207.268 121.482 207.084C121.719 206.897 121.896 206.646 122.015 206.331C122.135 206.014 122.196 205.661 122.196 205.273C122.196 204.889 122.137 204.544 122.018 204.236C121.902 203.926 121.726 203.681 121.489 203.501C121.255 203.318 120.96 203.227 120.605 203.227C120.264 203.227 119.978 203.314 119.746 203.487C119.514 203.657 119.338 203.896 119.22 204.204C119.102 204.509 119.042 204.866 119.042 205.273ZM124.316 208V202.545H125.154V208H124.316ZM124.742 201.636C124.579 201.636 124.438 201.581 124.319 201.469C124.203 201.358 124.145 201.224 124.145 201.068C124.145 200.912 124.203 200.778 124.319 200.667C124.438 200.556 124.579 200.5 124.742 200.5C124.905 200.5 125.045 200.556 125.161 200.667C125.279 200.778 125.339 200.912 125.339 201.068C125.339 201.224 125.279 201.358 125.161 201.469C125.045 201.581 124.905 201.636 124.742 201.636ZM129.061 202.545V203.256H126.234V202.545H129.061ZM127.058 201.239H127.896V206.438C127.896 206.674 127.931 206.852 127.999 206.97C128.07 207.086 128.16 207.164 128.269 207.205C128.38 207.242 128.498 207.261 128.621 207.261C128.713 207.261 128.789 207.257 128.848 207.247C128.907 207.235 128.955 207.226 128.99 207.219L129.161 207.972C129.104 207.993 129.024 208.014 128.923 208.036C128.821 208.059 128.692 208.071 128.536 208.071C128.299 208.071 128.067 208.02 127.839 207.918C127.615 207.817 127.428 207.661 127.278 207.453C127.132 207.245 127.058 206.982 127.058 206.665V201.239ZM130.322 208V202.545H131.16V208H130.322ZM130.748 201.636C130.585 201.636 130.444 201.581 130.325 201.469C130.209 201.358 130.151 201.224 130.151 201.068C130.151 200.912 130.209 200.778 130.325 200.667C130.444 200.556 130.585 200.5 130.748 200.5C130.911 200.5 131.051 200.556 131.167 200.667C131.285 200.778 131.344 200.912 131.344 201.068C131.344 201.224 131.285 201.358 131.167 201.469C131.051 201.581 130.911 201.636 130.748 201.636ZM134.911 208.114C134.418 208.114 133.986 207.996 133.615 207.762C133.245 207.528 132.956 207.2 132.748 206.778C132.542 206.357 132.439 205.865 132.439 205.301C132.439 204.733 132.542 204.237 132.748 203.813C132.956 203.389 133.245 203.06 133.615 202.826C133.986 202.592 134.418 202.474 134.911 202.474C135.403 202.474 135.834 202.592 136.203 202.826C136.575 203.06 136.864 203.389 137.07 203.813C137.278 204.237 137.382 204.733 137.382 205.301C137.382 205.865 137.278 206.357 137.07 206.778C136.864 207.2 136.575 207.528 136.203 207.762C135.834 207.996 135.403 208.114 134.911 208.114ZM134.911 207.361C135.285 207.361 135.593 207.265 135.834 207.073C136.075 206.881 136.254 206.629 136.37 206.317C136.486 206.004 136.544 205.666 136.544 205.301C136.544 204.937 136.486 204.597 136.37 204.282C136.254 203.967 136.075 203.713 135.834 203.518C135.593 203.324 135.285 203.227 134.911 203.227C134.537 203.227 134.229 203.324 133.987 203.518C133.746 203.713 133.567 203.967 133.451 204.282C133.335 204.597 133.277 204.937 133.277 205.301C133.277 205.666 133.335 206.004 133.451 206.317C133.567 206.629 133.746 206.881 133.987 207.073C134.229 207.265 134.537 207.361 134.911 207.361ZM139.5 204.719V208H138.662V202.545H139.471V203.398H139.542C139.67 203.121 139.864 202.898 140.125 202.73C140.385 202.56 140.721 202.474 141.133 202.474C141.502 202.474 141.826 202.55 142.103 202.702C142.38 202.851 142.595 203.078 142.749 203.384C142.903 203.687 142.98 204.07 142.98 204.534V208H142.142V204.591C142.142 204.162 142.03 203.829 141.808 203.589C141.585 203.348 141.28 203.227 140.892 203.227C140.624 203.227 140.385 203.285 140.174 203.401C139.966 203.517 139.801 203.687 139.681 203.909C139.56 204.132 139.5 204.402 139.5 204.719ZM148.375 203.767L147.622 203.98C147.575 203.855 147.505 203.733 147.412 203.614C147.323 203.494 147.199 203.394 147.043 203.316C146.887 203.238 146.687 203.199 146.443 203.199C146.109 203.199 145.831 203.276 145.608 203.43C145.388 203.581 145.278 203.774 145.278 204.009C145.278 204.217 145.354 204.381 145.506 204.502C145.657 204.623 145.894 204.723 146.216 204.804L147.025 205.003C147.513 205.121 147.876 205.302 148.116 205.546C148.355 205.788 148.474 206.099 148.474 206.48C148.474 206.793 148.384 207.072 148.204 207.318C148.027 207.564 147.778 207.759 147.459 207.901C147.139 208.043 146.767 208.114 146.344 208.114C145.787 208.114 145.327 207.993 144.962 207.751C144.598 207.51 144.367 207.157 144.27 206.693L145.065 206.494C145.141 206.788 145.284 207.008 145.495 207.155C145.708 207.302 145.986 207.375 146.329 207.375C146.72 207.375 147.03 207.292 147.26 207.126C147.492 206.958 147.608 206.757 147.608 206.523C147.608 206.333 147.541 206.175 147.409 206.047C147.276 205.917 147.073 205.82 146.798 205.756L145.889 205.543C145.39 205.424 145.023 205.241 144.788 204.992C144.556 204.741 144.44 204.428 144.44 204.051C144.44 203.743 144.527 203.471 144.699 203.234C144.875 202.998 145.113 202.812 145.413 202.677C145.716 202.542 146.059 202.474 146.443 202.474C146.983 202.474 147.407 202.593 147.714 202.83C148.024 203.066 148.245 203.379 148.375 203.767ZM154.92 202.545V203.256H152.094V202.545H154.92ZM152.918 201.239H153.756V206.438C153.756 206.674 153.79 206.852 153.859 206.97C153.93 207.086 154.02 207.164 154.129 207.205C154.24 207.242 154.357 207.261 154.48 207.261C154.572 207.261 154.648 207.257 154.707 207.247C154.767 207.235 154.814 207.226 154.849 207.219L155.02 207.972C154.963 207.993 154.884 208.014 154.782 208.036C154.68 208.059 154.551 208.071 154.395 208.071C154.158 208.071 153.926 208.02 153.699 207.918C153.474 207.817 153.287 207.661 153.138 207.453C152.991 207.245 152.918 206.982 152.918 206.665V201.239ZM158.338 208.114C157.846 208.114 157.414 207.996 157.042 207.762C156.673 207.528 156.384 207.2 156.176 206.778C155.97 206.357 155.867 205.865 155.867 205.301C155.867 204.733 155.97 204.237 156.176 203.813C156.384 203.389 156.673 203.06 157.042 202.826C157.414 202.592 157.846 202.474 158.338 202.474C158.831 202.474 159.262 202.592 159.631 202.826C160.003 203.06 160.292 203.389 160.498 203.813C160.706 204.237 160.81 204.733 160.81 205.301C160.81 205.865 160.706 206.357 160.498 206.778C160.292 207.2 160.003 207.528 159.631 207.762C159.262 207.996 158.831 208.114 158.338 208.114ZM158.338 207.361C158.712 207.361 159.02 207.265 159.262 207.073C159.503 206.881 159.682 206.629 159.798 206.317C159.914 206.004 159.972 205.666 159.972 205.301C159.972 204.937 159.914 204.597 159.798 204.282C159.682 203.967 159.503 203.713 159.262 203.518C159.02 203.324 158.712 203.227 158.338 203.227C157.964 203.227 157.657 203.324 157.415 203.518C157.174 203.713 156.995 203.967 156.879 204.282C156.763 204.597 156.705 204.937 156.705 205.301C156.705 205.666 156.763 206.004 156.879 206.317C156.995 206.629 157.174 206.881 157.415 207.073C157.657 207.265 157.964 207.361 158.338 207.361ZM27.8524 215.767L27.0995 215.98C27.0522 215.855 26.9823 215.733 26.89 215.614C26.8 215.494 26.6769 215.394 26.5207 215.316C26.3644 215.238 26.1644 215.199 25.9205 215.199C25.5867 215.199 25.3086 215.276 25.086 215.43C24.8659 215.581 24.7558 215.774 24.7558 216.009C24.7558 216.217 24.8315 216.381 24.983 216.502C25.1346 216.623 25.3713 216.723 25.6933 216.804L26.5029 217.003C26.9906 217.121 27.354 217.302 27.5931 217.546C27.8322 217.788 27.9518 218.099 27.9518 218.48C27.9518 218.793 27.8618 219.072 27.6819 219.318C27.5044 219.564 27.2558 219.759 26.9362 219.901C26.6166 220.043 26.2449 220.114 25.8211 220.114C25.2648 220.114 24.8043 219.993 24.4397 219.751C24.0751 219.51 23.8443 219.157 23.7472 218.693L24.5427 218.494C24.6185 218.788 24.7617 219.008 24.9724 219.155C25.1855 219.302 25.4636 219.375 25.8069 219.375C26.1975 219.375 26.5077 219.292 26.7373 219.126C26.9693 218.958 27.0853 218.757 27.0853 218.523C27.0853 218.333 27.019 218.175 26.8865 218.047C26.7539 217.917 26.5503 217.82 26.2757 217.756L25.3666 217.543C24.867 217.424 24.5001 217.241 24.2657 216.992C24.0337 216.741 23.9177 216.428 23.9177 216.051C23.9177 215.743 24.0041 215.471 24.1769 215.234C24.3521 214.998 24.5901 214.812 24.8907 214.677C25.1937 214.542 25.537 214.474 25.9205 214.474C26.4603 214.474 26.8841 214.593 27.1919 214.83C27.502 215.066 27.7222 215.379 27.8524 215.767ZM30.0514 216.719V220H29.2133V212.727H30.0514V215.398H30.1224C30.2503 215.116 30.442 214.892 30.6977 214.727C30.9558 214.558 31.299 214.474 31.7275 214.474C32.0992 214.474 32.4247 214.549 32.7041 214.698C32.9835 214.845 33.2001 215.071 33.354 215.376C33.5102 215.679 33.5883 216.065 33.5883 216.534V220H32.7503V216.591C32.7503 216.158 32.6378 215.823 32.4129 215.586C32.1904 215.347 31.8814 215.227 31.4861 215.227C31.2114 215.227 30.9652 215.285 30.7474 215.401C30.532 215.517 30.3615 215.687 30.2361 215.909C30.113 216.132 30.0514 216.402 30.0514 216.719ZM37.3374 220.114C36.845 220.114 36.413 219.996 36.0413 219.762C35.672 219.528 35.3831 219.2 35.1748 218.778C34.9688 218.357 34.8659 217.865 34.8659 217.301C34.8659 216.733 34.9688 216.237 35.1748 215.813C35.3831 215.389 35.672 215.06 36.0413 214.826C36.413 214.592 36.845 214.474 37.3374 214.474C37.8299 214.474 38.2607 214.592 38.6301 214.826C39.0017 215.06 39.2906 215.389 39.4965 215.813C39.7049 216.237 39.809 216.733 39.809 217.301C39.809 217.865 39.7049 218.357 39.4965 218.778C39.2906 219.2 39.0017 219.528 38.6301 219.762C38.2607 219.996 37.8299 220.114 37.3374 220.114ZM37.3374 219.361C37.7115 219.361 38.0193 219.265 38.2607 219.073C38.5022 218.881 38.681 218.629 38.797 218.317C38.913 218.004 38.971 217.666 38.971 217.301C38.971 216.937 38.913 216.597 38.797 216.282C38.681 215.967 38.5022 215.713 38.2607 215.518C38.0193 215.324 37.7115 215.227 37.3374 215.227C36.9634 215.227 36.6556 215.324 36.4142 215.518C36.1727 215.713 35.9939 215.967 35.8779 216.282C35.7619 216.597 35.7039 216.937 35.7039 217.301C35.7039 217.666 35.7619 218.004 35.8779 218.317C35.9939 218.629 36.1727 218.881 36.4142 219.073C36.6556 219.265 36.9634 219.361 37.3374 219.361ZM42.1386 220L40.4767 214.545H41.3573L42.5363 218.722H42.5931L43.7579 214.545H44.6528L45.8034 218.707H45.8602L47.0392 214.545H47.9198L46.2579 220H45.434L44.2409 215.81H44.1556L42.9624 220H42.1386ZM51.0581 220.114C50.5468 220.114 50.1064 219.993 49.7371 219.751C49.3678 219.51 49.0837 219.177 48.8849 218.754C48.686 218.33 48.5866 217.846 48.5866 217.301C48.5866 216.747 48.6884 216.258 48.892 215.835C49.0979 215.408 49.3844 215.076 49.7513 214.837C50.1206 214.595 50.5515 214.474 51.0439 214.474C51.4275 214.474 51.7731 214.545 52.0809 214.688C52.3886 214.83 52.6408 215.028 52.8373 215.284C53.0338 215.54 53.1557 215.838 53.203 216.179H52.365C52.301 215.93 52.159 215.71 51.9388 215.518C51.721 215.324 51.4275 215.227 51.0581 215.227C50.7314 215.227 50.445 215.312 50.1988 215.483C49.9549 215.651 49.7644 215.889 49.627 216.197C49.4921 216.502 49.4246 216.861 49.4246 217.273C49.4246 217.694 49.4909 218.061 49.6235 218.374C49.7584 218.686 49.9478 218.929 50.1917 219.102C50.4379 219.274 50.7267 219.361 51.0581 219.361C51.276 219.361 51.4736 219.323 51.6512 219.247C51.8287 219.171 51.9791 219.062 52.1022 218.92C52.2253 218.778 52.3129 218.608 52.365 218.409H53.203C53.1557 218.731 53.0385 219.021 52.8515 219.279C52.6668 219.535 52.4218 219.738 52.1164 219.89C51.8134 220.039 51.4606 220.114 51.0581 220.114ZM56.0333 220.128C55.6876 220.128 55.374 220.063 55.0922 219.933C54.8105 219.8 54.5868 219.609 54.4211 219.361C54.2554 219.11 54.1725 218.807 54.1725 218.452C54.1725 218.139 54.234 217.886 54.3572 217.692C54.4803 217.495 54.6448 217.341 54.8508 217.23C55.0567 217.119 55.284 217.036 55.5326 216.982C55.7835 216.925 56.0357 216.88 56.289 216.847C56.6204 216.804 56.8891 216.772 57.0951 216.751C57.3034 216.727 57.4549 216.688 57.5496 216.634C57.6467 216.579 57.6952 216.484 57.6952 216.349V216.321C57.6952 215.971 57.5993 215.698 57.4076 215.504C57.2182 215.31 56.9305 215.213 56.5447 215.213C56.1446 215.213 55.8309 215.301 55.6036 215.476C55.3763 215.651 55.2165 215.838 55.1242 216.037L54.3287 215.753C54.4708 215.421 54.6602 215.163 54.8969 214.979C55.136 214.792 55.3965 214.661 55.6782 214.588C55.9623 214.512 56.2416 214.474 56.5162 214.474C56.6914 214.474 56.8927 214.496 57.1199 214.538C57.3496 214.579 57.5709 214.663 57.784 214.79C57.9994 214.918 58.1782 215.111 58.3202 215.369C58.4623 215.627 58.5333 215.973 58.5333 216.406V220H57.6952V219.261H57.6526C57.5958 219.38 57.5011 219.506 57.3685 219.641C57.2359 219.776 57.0596 219.891 56.8394 219.986C56.6192 220.08 56.3505 220.128 56.0333 220.128ZM56.1611 219.375C56.4926 219.375 56.7719 219.31 56.9992 219.18C57.2288 219.049 57.4017 218.881 57.5177 218.675C57.636 218.469 57.6952 218.253 57.6952 218.026V217.259C57.6597 217.301 57.5816 217.34 57.4608 217.376C57.3425 217.409 57.2052 217.438 57.0489 217.464C56.895 217.488 56.7447 217.509 56.5979 217.528C56.4535 217.545 56.3363 217.559 56.2464 217.571C56.0286 217.599 55.825 217.646 55.6356 217.71C55.4485 217.771 55.297 217.865 55.181 217.99C55.0674 218.113 55.0106 218.281 55.0106 218.494C55.0106 218.786 55.1183 219.006 55.3337 219.155C55.5515 219.302 55.8273 219.375 56.1611 219.375ZM63.9266 215.767L63.1737 215.98C63.1264 215.855 63.0566 215.733 62.9642 215.614C62.8743 215.494 62.7512 215.394 62.5949 215.316C62.4387 215.238 62.2386 215.199 61.9948 215.199C61.661 215.199 61.3828 215.276 61.1602 215.43C60.9401 215.581 60.83 215.774 60.83 216.009C60.83 216.217 60.9057 216.381 61.0573 216.502C61.2088 216.623 61.4455 216.723 61.7675 216.804L62.5771 217.003C63.0648 217.121 63.4282 217.302 63.6673 217.546C63.9065 217.788 64.026 218.099 64.026 218.48C64.026 218.793 63.9361 219.072 63.7561 219.318C63.5786 219.564 63.33 219.759 63.0104 219.901C62.6908 220.043 62.3191 220.114 61.8953 220.114C61.339 220.114 60.8785 219.993 60.5139 219.751C60.1494 219.51 59.9185 219.157 59.8215 218.693L60.6169 218.494C60.6927 218.788 60.8359 219.008 61.0466 219.155C61.2597 219.302 61.5378 219.375 61.8811 219.375C62.2718 219.375 62.5819 219.292 62.8115 219.126C63.0435 218.958 63.1595 218.757 63.1595 218.523C63.1595 218.333 63.0932 218.175 62.9607 218.047C62.8281 217.917 62.6245 217.82 62.3499 217.756L61.4408 217.543C60.9413 217.424 60.5743 217.241 60.3399 216.992C60.1079 216.741 59.9919 216.428 59.9919 216.051C59.9919 215.743 60.0783 215.471 60.2512 215.234C60.4263 214.998 60.6643 214.812 60.9649 214.677C61.268 214.542 61.6112 214.474 61.9948 214.474C62.5345 214.474 62.9583 214.593 63.2661 214.83C63.5762 215.066 63.7964 215.379 63.9266 215.767ZM67.5745 220.114C67.0489 220.114 66.5956 219.998 66.2144 219.766C65.8356 219.531 65.5432 219.205 65.3373 218.786C65.1337 218.364 65.0319 217.874 65.0319 217.315C65.0319 216.757 65.1337 216.264 65.3373 215.838C65.5432 215.41 65.8297 215.076 66.1966 214.837C66.566 214.595 66.9968 214.474 67.4893 214.474C67.7733 214.474 68.0539 214.522 68.3309 214.616C68.6079 214.711 68.86 214.865 69.0873 215.078C69.3145 215.289 69.4957 215.568 69.6306 215.916C69.7655 216.264 69.833 216.693 69.833 217.202V217.557H65.6285V216.832H68.9807C68.9807 216.525 68.9192 216.25 68.7961 216.009C68.6753 215.767 68.5025 215.576 68.2776 215.437C68.0551 215.297 67.7923 215.227 67.4893 215.227C67.1555 215.227 66.8666 215.31 66.6228 215.476C66.3813 215.639 66.1955 215.852 66.0653 216.115C65.935 216.378 65.8699 216.66 65.8699 216.96V217.443C65.8699 217.855 65.941 218.204 66.083 218.491C66.2274 218.775 66.4275 218.991 66.6831 219.141C66.9388 219.287 67.2359 219.361 67.5745 219.361C67.7947 219.361 67.9935 219.33 68.1711 219.268C68.351 219.205 68.5061 219.11 68.6363 218.984C68.7665 218.857 68.8671 218.698 68.9381 218.509L69.7478 218.736C69.6626 219.01 69.5193 219.252 69.3181 219.46C69.1169 219.666 68.8683 219.827 68.5724 219.943C68.2764 220.057 67.9438 220.114 67.5745 220.114ZM76.2925 214.545V215.256H73.4658V214.545H76.2925ZM74.2897 213.239H75.1278V218.438C75.1278 218.674 75.1621 218.852 75.2307 218.97C75.3018 219.086 75.3917 219.164 75.5006 219.205C75.6119 219.242 75.7291 219.261 75.8522 219.261C75.9445 219.261 76.0203 219.257 76.0795 219.247C76.1386 219.235 76.186 219.226 76.2215 219.219L76.392 219.972C76.3351 219.993 76.2558 220.014 76.154 220.036C76.0522 220.059 75.9232 220.071 75.767 220.071C75.5302 220.071 75.2982 220.02 75.0709 219.918C74.846 219.817 74.659 219.661 74.5099 219.453C74.3631 219.245 74.2897 218.982 74.2897 218.665V213.239ZM78.5084 216.719V220H77.6704V212.727H78.5084V215.398H78.5795C78.7073 215.116 78.8991 214.892 79.1547 214.727C79.4128 214.558 79.7561 214.474 80.1846 214.474C80.5563 214.474 80.8818 214.549 81.1611 214.698C81.4405 214.845 81.6571 215.071 81.811 215.376C81.9672 215.679 82.0454 216.065 82.0454 216.534V220H81.2073V216.591C81.2073 216.158 81.0948 215.823 80.8699 215.586C80.6474 215.347 80.3385 215.227 79.9431 215.227C79.6685 215.227 79.4223 215.285 79.2045 215.401C78.989 215.517 78.8186 215.687 78.6931 215.909C78.57 216.132 78.5084 216.402 78.5084 216.719ZM85.8655 220.114C85.3399 220.114 84.8866 219.998 84.5054 219.766C84.1266 219.531 83.8343 219.205 83.6283 218.786C83.4247 218.364 83.3229 217.874 83.3229 217.315C83.3229 216.757 83.4247 216.264 83.6283 215.838C83.8343 215.41 84.1207 215.076 84.4877 214.837C84.857 214.595 85.2878 214.474 85.7803 214.474C86.0644 214.474 86.3449 214.522 86.6219 214.616C86.8989 214.711 87.151 214.865 87.3783 215.078C87.6056 215.289 87.7867 215.568 87.9216 215.916C88.0566 216.264 88.124 216.693 88.124 217.202V217.557H83.9195V216.832H87.2718C87.2718 216.525 87.2102 216.25 87.0871 216.009C86.9664 215.767 86.7935 215.576 86.5686 215.437C86.3461 215.297 86.0833 215.227 85.7803 215.227C85.4465 215.227 85.1576 215.31 84.9138 215.476C84.6723 215.639 84.4865 215.852 84.3563 216.115C84.2261 216.378 84.161 216.66 84.161 216.96V217.443C84.161 217.855 84.232 218.204 84.374 218.491C84.5184 218.775 84.7185 218.991 84.9742 219.141C85.2298 219.287 85.527 219.361 85.8655 219.361C86.0857 219.361 86.2845 219.33 86.4621 219.268C86.642 219.205 86.7971 219.11 86.9273 218.984C87.0575 218.857 87.1581 218.698 87.2291 218.509L88.0388 218.736C87.9536 219.01 87.8103 219.252 87.6091 219.46C87.4079 219.666 87.1593 219.827 86.8634 219.943C86.5674 220.057 86.2348 220.114 85.8655 220.114ZM93.4472 220L91.7852 214.545H92.6659L93.8449 218.722H93.9017L95.0665 214.545H95.9614L97.1119 218.707H97.1688L98.3477 214.545H99.2284L97.5665 220H96.7426L95.5494 215.81H95.4642L94.271 220H93.4472ZM102.367 220.114C101.874 220.114 101.442 219.996 101.071 219.762C100.701 219.528 100.412 219.2 100.204 218.778C99.9981 218.357 99.8952 217.865 99.8952 217.301C99.8952 216.733 99.9981 216.237 100.204 215.813C100.412 215.389 100.701 215.06 101.071 214.826C101.442 214.592 101.874 214.474 102.367 214.474C102.859 214.474 103.29 214.592 103.659 214.826C104.031 215.06 104.32 215.389 104.526 215.813C104.734 216.237 104.838 216.733 104.838 217.301C104.838 217.865 104.734 218.357 104.526 218.778C104.32 219.2 104.031 219.528 103.659 219.762C103.29 219.996 102.859 220.114 102.367 220.114ZM102.367 219.361C102.741 219.361 103.049 219.265 103.29 219.073C103.532 218.881 103.71 218.629 103.826 218.317C103.942 218.004 104 217.666 104 217.301C104 216.937 103.942 216.597 103.826 216.282C103.71 215.967 103.532 215.713 103.29 215.518C103.049 215.324 102.741 215.227 102.367 215.227C101.993 215.227 101.685 215.324 101.443 215.518C101.202 215.713 101.023 215.967 100.907 216.282C100.791 216.597 100.733 216.937 100.733 217.301C100.733 217.666 100.791 218.004 100.907 218.317C101.023 218.629 101.202 218.881 101.443 219.073C101.685 219.265 101.993 219.361 102.367 219.361ZM106.118 220V214.545H106.927V215.369H106.984C107.084 215.099 107.263 214.88 107.524 214.712C107.784 214.544 108.078 214.46 108.405 214.46C108.466 214.46 108.543 214.461 108.635 214.464C108.728 214.466 108.798 214.47 108.845 214.474V215.327C108.816 215.32 108.751 215.309 108.65 215.295C108.55 215.278 108.445 215.27 108.334 215.27C108.068 215.27 107.832 215.326 107.623 215.437C107.417 215.546 107.254 215.697 107.133 215.891C107.015 216.083 106.956 216.302 106.956 216.548V220H106.118ZM110.62 218.011L110.605 216.974H110.776L113.162 214.545H114.199L111.657 217.116H111.585L110.62 218.011ZM109.838 220V212.727H110.676V220H109.838ZM113.304 220L111.174 217.301L111.77 216.719L114.37 220H113.304ZM120.306 220.114C119.814 220.114 119.382 219.996 119.01 219.762C118.641 219.528 118.352 219.2 118.144 218.778C117.938 218.357 117.835 217.865 117.835 217.301C117.835 216.733 117.938 216.237 118.144 215.813C118.352 215.389 118.641 215.06 119.01 214.826C119.382 214.592 119.814 214.474 120.306 214.474C120.799 214.474 121.229 214.592 121.599 214.826C121.97 215.06 122.259 215.389 122.465 215.813C122.674 216.237 122.778 216.733 122.778 217.301C122.778 217.865 122.674 218.357 122.465 218.778C122.259 219.2 121.97 219.528 121.599 219.762C121.229 219.996 120.799 220.114 120.306 220.114ZM120.306 219.361C120.68 219.361 120.988 219.265 121.229 219.073C121.471 218.881 121.65 218.629 121.766 218.317C121.882 218.004 121.94 217.666 121.94 217.301C121.94 216.937 121.882 216.597 121.766 216.282C121.65 215.967 121.471 215.713 121.229 215.518C120.988 215.324 120.68 215.227 120.306 215.227C119.932 215.227 119.624 215.324 119.383 215.518C119.141 215.713 118.963 215.967 118.847 216.282C118.731 216.597 118.673 216.937 118.673 217.301C118.673 217.666 118.731 218.004 118.847 218.317C118.963 218.629 119.141 218.881 119.383 219.073C119.624 219.265 119.932 219.361 120.306 219.361ZM126.486 214.545V215.256H123.546V214.545H126.486ZM124.426 220V213.793C124.426 213.48 124.5 213.22 124.647 213.011C124.793 212.803 124.984 212.647 125.218 212.543C125.453 212.438 125.7 212.386 125.96 212.386C126.166 212.386 126.335 212.403 126.465 212.436C126.595 212.469 126.692 212.5 126.756 212.528L126.514 213.253C126.472 213.239 126.413 213.221 126.337 213.2C126.264 213.178 126.166 213.168 126.046 213.168C125.769 213.168 125.569 213.237 125.446 213.377C125.325 213.517 125.264 213.722 125.264 213.991V220H124.426ZM132.689 220.114C132.197 220.114 131.765 219.996 131.393 219.762C131.024 219.528 130.735 219.2 130.526 218.778C130.32 218.357 130.217 217.865 130.217 217.301C130.217 216.733 130.32 216.237 130.526 215.813C130.735 215.389 131.024 215.06 131.393 214.826C131.765 214.592 132.197 214.474 132.689 214.474C133.181 214.474 133.612 214.592 133.982 214.826C134.353 215.06 134.642 215.389 134.848 215.813C135.056 216.237 135.161 216.733 135.161 217.301C135.161 217.865 135.056 218.357 134.848 218.778C134.642 219.2 134.353 219.528 133.982 219.762C133.612 219.996 133.181 220.114 132.689 220.114ZM132.689 219.361C133.063 219.361 133.371 219.265 133.612 219.073C133.854 218.881 134.033 218.629 134.149 218.317C134.265 218.004 134.323 217.666 134.323 217.301C134.323 216.937 134.265 216.597 134.149 216.282C134.033 215.967 133.854 215.713 133.612 215.518C133.371 215.324 133.063 215.227 132.689 215.227C132.315 215.227 132.007 215.324 131.766 215.518C131.524 215.713 131.345 215.967 131.229 216.282C131.113 216.597 131.055 216.937 131.055 217.301C131.055 217.666 131.113 218.004 131.229 218.317C131.345 218.629 131.524 218.881 131.766 219.073C132.007 219.265 132.315 219.361 132.689 219.361ZM139.877 217.77V214.545H140.715V220H139.877V219.077H139.821C139.693 219.354 139.494 219.589 139.224 219.783C138.954 219.975 138.613 220.071 138.201 220.071C137.86 220.071 137.557 219.996 137.292 219.847C137.027 219.696 136.819 219.469 136.667 219.165C136.516 218.86 136.44 218.475 136.44 218.011V214.545H137.278V217.955C137.278 218.352 137.389 218.67 137.612 218.906C137.837 219.143 138.123 219.261 138.471 219.261C138.679 219.261 138.891 219.208 139.107 219.102C139.325 218.995 139.507 218.832 139.654 218.612C139.803 218.391 139.877 218.111 139.877 217.77ZM142.25 220V214.545H143.06V215.369H143.117C143.216 215.099 143.396 214.88 143.657 214.712C143.917 214.544 144.211 214.46 144.537 214.46C144.599 214.46 144.676 214.461 144.768 214.464C144.861 214.466 144.93 214.47 144.978 214.474V215.327C144.949 215.32 144.884 215.309 144.782 215.295C144.683 215.278 144.578 215.27 144.466 215.27C144.201 215.27 143.964 215.326 143.756 215.437C143.55 215.546 143.387 215.697 143.266 215.891C143.148 216.083 143.089 216.302 143.089 216.548V220H142.25ZM151 220.114C150.488 220.114 150.048 219.993 149.679 219.751C149.309 219.51 149.025 219.177 148.826 218.754C148.627 218.33 148.528 217.846 148.528 217.301C148.528 216.747 148.63 216.258 148.833 215.835C149.039 215.408 149.326 215.076 149.693 214.837C150.062 214.595 150.493 214.474 150.985 214.474C151.369 214.474 151.715 214.545 152.022 214.688C152.33 214.83 152.582 215.028 152.779 215.284C152.975 215.54 153.097 215.838 153.144 216.179H152.306C152.242 215.93 152.1 215.71 151.88 215.518C151.662 215.324 151.369 215.227 151 215.227C150.673 215.227 150.386 215.312 150.14 215.483C149.896 215.651 149.706 215.889 149.568 216.197C149.434 216.502 149.366 216.861 149.366 217.273C149.366 217.694 149.432 218.061 149.565 218.374C149.7 218.686 149.889 218.929 150.133 219.102C150.379 219.274 150.668 219.361 151 219.361C151.217 219.361 151.415 219.323 151.593 219.247C151.77 219.171 151.92 219.062 152.044 218.92C152.167 218.778 152.254 218.608 152.306 218.409H153.144C153.097 218.731 152.98 219.021 152.793 219.279C152.608 219.535 152.363 219.738 152.058 219.89C151.755 220.039 151.402 220.114 151 220.114ZM155.208 212.727V220H154.37V212.727H155.208ZM156.743 220V214.545H157.581V220H156.743ZM157.169 213.636C157.005 213.636 156.865 213.581 156.746 213.469C156.63 213.358 156.572 213.224 156.572 213.068C156.572 212.912 156.63 212.778 156.746 212.667C156.865 212.556 157.005 212.5 157.169 212.5C157.332 212.5 157.472 212.556 157.588 212.667C157.706 212.778 157.765 212.912 157.765 213.068C157.765 213.224 157.706 213.358 157.588 213.469C157.472 213.581 157.332 213.636 157.169 213.636ZM161.403 220.114C160.877 220.114 160.424 219.998 160.043 219.766C159.664 219.531 159.371 219.205 159.165 218.786C158.962 218.364 158.86 217.874 158.86 217.315C158.86 216.757 158.962 216.264 159.165 215.838C159.371 215.41 159.658 215.076 160.025 214.837C160.394 214.595 160.825 214.474 161.317 214.474C161.601 214.474 161.882 214.522 162.159 214.616C162.436 214.711 162.688 214.865 162.915 215.078C163.143 215.289 163.324 215.568 163.459 215.916C163.594 216.264 163.661 216.693 163.661 217.202V217.557H159.457V216.832H162.809C162.809 216.525 162.747 216.25 162.624 216.009C162.503 215.767 162.331 215.576 162.106 215.437C161.883 215.297 161.62 215.227 161.317 215.227C160.984 215.227 160.695 215.31 160.451 215.476C160.209 215.639 160.024 215.852 159.893 216.115C159.763 216.378 159.698 216.66 159.698 216.96V217.443C159.698 217.855 159.769 218.204 159.911 218.491C160.056 218.775 160.256 218.991 160.511 219.141C160.767 219.287 161.064 219.361 161.403 219.361C161.623 219.361 161.822 219.33 161.999 219.268C162.179 219.205 162.334 219.11 162.464 218.984C162.595 218.857 162.695 218.698 162.766 218.509L163.576 218.736C163.491 219.01 163.347 219.252 163.146 219.46C162.945 219.666 162.696 219.827 162.4 219.943C162.105 220.057 161.772 220.114 161.403 220.114ZM165.774 216.719V220H164.936V214.545H165.746V215.398H165.817C165.945 215.121 166.139 214.898 166.399 214.73C166.659 214.56 166.996 214.474 167.408 214.474C167.777 214.474 168.1 214.55 168.377 214.702C168.654 214.851 168.869 215.078 169.023 215.384C169.177 215.687 169.254 216.07 169.254 216.534V220H168.416V216.591C168.416 216.162 168.305 215.829 168.082 215.589C167.86 215.348 167.554 215.227 167.166 215.227C166.899 215.227 166.659 215.285 166.449 215.401C166.24 215.517 166.076 215.687 165.955 215.909C165.834 216.132 165.774 216.402 165.774 216.719ZM173.158 214.545V215.256H170.331V214.545H173.158ZM171.155 213.239H171.993V218.438C171.993 218.674 172.027 218.852 172.096 218.97C172.167 219.086 172.257 219.164 172.366 219.205C172.477 219.242 172.594 219.261 172.717 219.261C172.81 219.261 172.886 219.257 172.945 219.247C173.004 219.235 173.051 219.226 173.087 219.219L173.257 219.972C173.2 219.993 173.121 220.014 173.019 220.036C172.917 220.059 172.788 220.071 172.632 220.071C172.395 220.071 172.163 220.02 171.936 219.918C171.711 219.817 171.524 219.661 171.375 219.453C171.228 219.245 171.155 218.982 171.155 218.665V213.239ZM178.184 215.767L177.432 215.98C177.384 215.855 177.314 215.733 177.222 215.614C177.132 215.494 177.009 215.394 176.853 215.316C176.696 215.238 176.496 215.199 176.253 215.199C175.919 215.199 175.641 215.276 175.418 215.43C175.198 215.581 175.088 215.774 175.088 216.009C175.088 216.217 175.164 216.381 175.315 216.502C175.467 216.623 175.703 216.723 176.025 216.804L176.835 217.003C177.323 217.121 177.686 217.302 177.925 217.546C178.164 217.788 178.284 218.099 178.284 218.48C178.284 218.793 178.194 219.072 178.014 219.318C177.836 219.564 177.588 219.759 177.268 219.901C176.949 220.043 176.577 220.114 176.153 220.114C175.597 220.114 175.136 219.993 174.772 219.751C174.407 219.51 174.176 219.157 174.079 218.693L174.875 218.494C174.95 218.788 175.094 219.008 175.304 219.155C175.517 219.302 175.796 219.375 176.139 219.375C176.53 219.375 176.84 219.292 177.069 219.126C177.301 218.958 177.417 218.757 177.417 218.523C177.417 218.333 177.351 218.175 177.218 218.047C177.086 217.917 176.882 217.82 176.608 217.756L175.699 217.543C175.199 217.424 174.832 217.241 174.598 216.992C174.366 216.741 174.25 216.428 174.25 216.051C174.25 215.743 174.336 215.471 174.509 215.234C174.684 214.998 174.922 214.812 175.223 214.677C175.526 214.542 175.869 214.474 176.253 214.474C176.792 214.474 177.216 214.593 177.524 214.83C177.834 215.066 178.054 215.379 178.184 215.767ZM29.4513 232.128C29.1056 232.128 28.7919 232.063 28.5102 231.933C28.2285 231.8 28.0048 231.609 27.839 231.361C27.6733 231.11 27.5905 230.807 27.5905 230.452C27.5905 230.139 27.652 229.886 27.7751 229.692C27.8982 229.495 28.0628 229.341 28.2687 229.23C28.4747 229.119 28.702 229.036 28.9506 228.982C29.2015 228.925 29.4536 228.88 29.7069 228.847C30.0384 228.804 30.3071 228.772 30.5131 228.751C30.7214 228.727 30.8729 228.688 30.9676 228.634C31.0647 228.579 31.1132 228.484 31.1132 228.349V228.321C31.1132 227.971 31.0173 227.698 30.8256 227.504C30.6362 227.31 30.3485 227.213 29.9626 227.213C29.5625 227.213 29.2488 227.301 29.0216 227.476C28.7943 227.651 28.6345 227.838 28.5422 228.037L27.7467 227.753C27.8888 227.421 28.0782 227.163 28.3149 226.979C28.554 226.792 28.8144 226.661 29.0961 226.588C29.3802 226.512 29.6596 226.474 29.9342 226.474C30.1094 226.474 30.3106 226.496 30.5379 226.538C30.7675 226.579 30.9889 226.663 31.202 226.79C31.4174 226.918 31.5961 227.111 31.7382 227.369C31.8802 227.627 31.9513 227.973 31.9513 228.406V232H31.1132V231.261H31.0706C31.0138 231.38 30.9191 231.506 30.7865 231.641C30.6539 231.776 30.4775 231.891 30.2574 231.986C30.0372 232.08 29.7685 232.128 29.4513 232.128ZM29.5791 231.375C29.9105 231.375 30.1899 231.31 30.4172 231.18C30.6468 231.049 30.8196 230.881 30.9356 230.675C31.054 230.469 31.1132 230.253 31.1132 230.026V229.259C31.0777 229.301 30.9996 229.34 30.8788 229.376C30.7604 229.409 30.6231 229.438 30.4669 229.464C30.313 229.488 30.1627 229.509 30.0159 229.528C29.8715 229.545 29.7543 229.559 29.6643 229.571C29.4465 229.599 29.2429 229.646 29.0535 229.71C28.8665 229.771 28.715 229.865 28.599 229.99C28.4854 230.113 28.4285 230.281 28.4285 230.494C28.4285 230.786 28.5363 231.006 28.7517 231.155C28.9695 231.302 29.2453 231.375 29.5791 231.375ZM34.319 228.719V232H33.4809V226.545H34.2906V227.398H34.3616C34.4894 227.121 34.6836 226.898 34.944 226.73C35.2044 226.56 35.5406 226.474 35.9525 226.474C36.3218 226.474 36.645 226.55 36.922 226.702C37.199 226.851 37.4144 227.078 37.5683 227.384C37.7222 227.687 37.7991 228.07 37.7991 228.534V232H36.961V228.591C36.961 228.162 36.8498 227.829 36.6272 227.589C36.4047 227.348 36.0993 227.227 35.711 227.227C35.4435 227.227 35.2044 227.285 34.9937 227.401C34.7854 227.517 34.6208 227.687 34.5001 227.909C34.3794 228.132 34.319 228.402 34.319 228.719ZM41.3902 232.114C40.9356 232.114 40.5344 231.999 40.1863 231.769C39.8383 231.537 39.5661 231.21 39.3696 230.789C39.1731 230.365 39.0748 229.865 39.0748 229.287C39.0748 228.714 39.1731 228.217 39.3696 227.795C39.5661 227.374 39.8395 227.049 40.1899 226.819C40.5403 226.589 40.9451 226.474 41.4044 226.474C41.7595 226.474 42.04 226.534 42.246 226.652C42.4543 226.768 42.613 226.901 42.7219 227.05C42.8331 227.196 42.9195 227.317 42.9811 227.412H43.0521V224.727H43.8902V232H43.0805V231.162H42.9811C42.9195 231.261 42.8319 231.387 42.7183 231.538C42.6047 231.687 42.4425 231.821 42.2318 231.94C42.0211 232.056 41.7406 232.114 41.3902 232.114ZM41.5038 231.361C41.84 231.361 42.1241 231.273 42.3561 231.098C42.5881 230.92 42.7645 230.675 42.8852 230.363C43.0059 230.048 43.0663 229.685 43.0663 229.273C43.0663 228.866 43.0071 228.509 42.8888 228.204C42.7704 227.896 42.5952 227.657 42.3632 227.487C42.1312 227.314 41.8447 227.227 41.5038 227.227C41.1487 227.227 40.8528 227.318 40.616 227.501C40.3817 227.681 40.2053 227.926 40.0869 228.236C39.9709 228.544 39.9129 228.889 39.9129 229.273C39.9129 229.661 39.9721 230.014 40.0905 230.331C40.2112 230.646 40.3888 230.897 40.6231 231.084C40.8599 231.268 41.1534 231.361 41.5038 231.361ZM49.192 228.719V232H48.354V224.727H49.192V227.398H49.2631C49.3909 227.116 49.5827 226.892 49.8383 226.727C50.0964 226.558 50.4397 226.474 50.8682 226.474C51.2398 226.474 51.5654 226.549 51.8447 226.698C52.1241 226.845 52.3407 227.071 52.4946 227.376C52.6508 227.679 52.729 228.065 52.729 228.534V232H51.8909V228.591C51.8909 228.158 51.7784 227.823 51.5535 227.586C51.331 227.347 51.022 227.227 50.6267 227.227C50.3521 227.227 50.1059 227.285 49.8881 227.401C49.6726 227.517 49.5022 227.687 49.3767 227.909C49.2536 228.132 49.192 228.402 49.192 228.719ZM56.5491 232.114C56.0235 232.114 55.5702 231.998 55.189 231.766C54.8102 231.531 54.5178 231.205 54.3119 230.786C54.1083 230.364 54.0065 229.874 54.0065 229.315C54.0065 228.757 54.1083 228.264 54.3119 227.838C54.5178 227.41 54.8043 227.076 55.1713 226.837C55.5406 226.595 55.9714 226.474 56.4639 226.474C56.748 226.474 57.0285 226.522 57.3055 226.616C57.5825 226.711 57.8346 226.865 58.0619 227.078C58.2892 227.289 58.4703 227.568 58.6052 227.916C58.7401 228.264 58.8076 228.693 58.8076 229.202V229.557H54.6031V228.832H57.9553C57.9553 228.525 57.8938 228.25 57.7707 228.009C57.6499 227.767 57.4771 227.576 57.2522 227.437C57.0297 227.297 56.7669 227.227 56.4639 227.227C56.1301 227.227 55.8412 227.31 55.5974 227.476C55.3559 227.639 55.1701 227.852 55.0399 228.115C54.9097 228.378 54.8445 228.66 54.8445 228.96V229.443C54.8445 229.855 54.9156 230.204 55.0576 230.491C55.202 230.775 55.4021 230.991 55.6578 231.141C55.9134 231.287 56.2106 231.361 56.5491 231.361C56.7693 231.361 56.9681 231.33 57.1457 231.268C57.3256 231.205 57.4807 231.11 57.6109 230.984C57.7411 230.857 57.8417 230.698 57.9127 230.509L58.7224 230.736C58.6372 231.01 58.4939 231.252 58.2927 231.46C58.0915 231.666 57.8429 231.827 57.547 231.943C57.251 232.057 56.9184 232.114 56.5491 232.114ZM60.9205 224.727V232H60.0825V224.727H60.9205ZM62.4555 234.045V226.545H63.2652V227.412H63.3646C63.4262 227.317 63.5114 227.196 63.6203 227.05C63.7316 226.901 63.8902 226.768 64.0961 226.652C64.3045 226.534 64.5862 226.474 64.9413 226.474C65.4006 226.474 65.8054 226.589 66.1558 226.819C66.5062 227.049 66.7796 227.374 66.9761 227.795C67.1726 228.217 67.2709 228.714 67.2709 229.287C67.2709 229.865 67.1726 230.365 66.9761 230.789C66.7796 231.21 66.5074 231.537 66.1594 231.769C65.8113 231.999 65.4101 232.114 64.9555 232.114C64.6051 232.114 64.3246 232.056 64.1139 231.94C63.9032 231.821 63.741 231.687 63.6274 231.538C63.5138 231.387 63.4262 231.261 63.3646 231.162H63.2936V234.045H62.4555ZM63.2794 229.273C63.2794 229.685 63.3398 230.048 63.4605 230.363C63.5812 230.675 63.7576 230.92 63.9896 231.098C64.2216 231.273 64.5057 231.361 64.8419 231.361C65.1923 231.361 65.4846 231.268 65.719 231.084C65.9558 230.897 66.1333 230.646 66.2517 230.331C66.3724 230.014 66.4328 229.661 66.4328 229.273C66.4328 228.889 66.3736 228.544 66.2552 228.236C66.1392 227.926 65.9629 227.681 65.7261 227.501C65.4917 227.318 65.197 227.227 64.8419 227.227C64.501 227.227 64.2145 227.314 63.9825 227.487C63.7505 227.657 63.5753 227.896 63.4569 228.204C63.3386 228.509 63.2794 228.866 63.2794 229.273ZM73.7339 226.545V227.256H70.9072V226.545H73.7339ZM71.7311 225.239H72.5692V230.438C72.5692 230.674 72.6035 230.852 72.6721 230.97C72.7432 231.086 72.8331 231.164 72.942 231.205C73.0533 231.242 73.1705 231.261 73.2936 231.261C73.3859 231.261 73.4617 231.257 73.5209 231.247C73.58 231.235 73.6274 231.226 73.6629 231.219L73.8334 231.972C73.7765 231.993 73.6972 232.014 73.5954 232.036C73.4936 232.059 73.3646 232.071 73.2084 232.071C72.9716 232.071 72.7396 232.02 72.5123 231.918C72.2874 231.817 72.1004 231.661 71.9513 231.453C71.8045 231.245 71.7311 230.982 71.7311 230.665V225.239ZM75.9498 228.719V232H75.1118V224.727H75.9498V227.398H76.0209C76.1487 227.116 76.3405 226.892 76.5961 226.727C76.8542 226.558 77.1975 226.474 77.626 226.474C77.9977 226.474 78.3232 226.549 78.6025 226.698C78.8819 226.845 79.0985 227.071 79.2524 227.376C79.4086 227.679 79.4868 228.065 79.4868 228.534V232H78.6487V228.591C78.6487 228.158 78.5363 227.823 78.3113 227.586C78.0888 227.347 77.7799 227.227 77.3845 227.227C77.1099 227.227 76.8637 227.285 76.6459 227.401C76.4304 227.517 76.26 227.687 76.1345 227.909C76.0114 228.132 75.9498 228.402 75.9498 228.719ZM83.3069 232.114C82.7813 232.114 82.328 231.998 81.9468 231.766C81.568 231.531 81.2757 231.205 81.0697 230.786C80.8661 230.364 80.7643 229.874 80.7643 229.315C80.7643 228.757 80.8661 228.264 81.0697 227.838C81.2757 227.41 81.5621 227.076 81.9291 226.837C82.2984 226.595 82.7293 226.474 83.2217 226.474C83.5058 226.474 83.7863 226.522 84.0633 226.616C84.3403 226.711 84.5924 226.865 84.8197 227.078C85.047 227.289 85.2281 227.568 85.363 227.916C85.498 228.264 85.5654 228.693 85.5654 229.202V229.557H81.3609V228.832H84.7132C84.7132 228.525 84.6516 228.25 84.5285 228.009C84.4078 227.767 84.2349 227.576 84.01 227.437C83.7875 227.297 83.5247 227.227 83.2217 227.227C82.8879 227.227 82.599 227.31 82.3552 227.476C82.1137 227.639 81.9279 227.852 81.7977 228.115C81.6675 228.378 81.6024 228.66 81.6024 228.96V229.443C81.6024 229.855 81.6734 230.204 81.8154 230.491C81.9598 230.775 82.1599 230.991 82.4156 231.141C82.6713 231.287 82.9684 231.361 83.3069 231.361C83.5271 231.361 83.7259 231.33 83.9035 231.268C84.0834 231.205 84.2385 231.11 84.3687 230.984C84.4989 230.857 84.5995 230.698 84.6705 230.509L85.4802 230.736C85.395 231.01 85.2517 231.252 85.0505 231.46C84.8493 231.666 84.6007 231.827 84.3048 231.943C84.0088 232.057 83.6762 232.114 83.3069 232.114ZM86.8403 232V226.545H87.6499V227.398H87.721C87.8346 227.107 88.0181 226.88 88.2714 226.719C88.5247 226.556 88.8289 226.474 89.184 226.474C89.5439 226.474 89.8434 226.556 90.0825 226.719C90.324 226.88 90.5122 227.107 90.6471 227.398H90.7039C90.8436 227.116 91.0531 226.892 91.3325 226.727C91.6118 226.558 91.9468 226.474 92.3374 226.474C92.8251 226.474 93.224 226.627 93.5342 226.933C93.8443 227.236 93.9994 227.708 93.9994 228.349V232H93.1613V228.349C93.1613 227.947 93.0512 227.659 92.8311 227.487C92.6109 227.314 92.3517 227.227 92.0534 227.227C91.6698 227.227 91.3727 227.343 91.162 227.575C90.9513 227.805 90.846 228.096 90.846 228.449V232H89.9937V228.264C89.9937 227.954 89.8931 227.704 89.6919 227.515C89.4906 227.323 89.2314 227.227 88.9142 227.227C88.6963 227.227 88.4927 227.285 88.3034 227.401C88.1163 227.517 87.9648 227.678 87.8488 227.884C87.7352 228.088 87.6784 228.323 87.6784 228.591V232H86.8403ZM100.546 234.159C100.141 234.159 99.7931 234.107 99.5019 234.003C99.2107 233.901 98.968 233.766 98.7739 233.598C98.5821 233.432 98.4294 233.255 98.3158 233.065L98.9834 232.597C99.0592 232.696 99.155 232.81 99.271 232.938C99.387 233.068 99.5457 233.18 99.7469 233.275C99.9505 233.372 100.217 233.42 100.546 233.42C100.986 233.42 101.35 233.314 101.636 233.101C101.923 232.888 102.066 232.554 102.066 232.099V230.991H101.995C101.933 231.091 101.846 231.214 101.732 231.361C101.621 231.505 101.46 231.634 101.249 231.748C101.041 231.859 100.759 231.915 100.404 231.915C99.9635 231.915 99.5682 231.811 99.2178 231.602C98.8698 231.394 98.594 231.091 98.3904 230.693C98.1891 230.295 98.0885 229.812 98.0885 229.244C98.0885 228.686 98.1868 228.199 98.3833 227.785C98.5798 227.368 98.8532 227.046 99.2036 226.819C99.5539 226.589 99.9588 226.474 100.418 226.474C100.773 226.474 101.055 226.534 101.263 226.652C101.474 226.768 101.635 226.901 101.746 227.05C101.86 227.196 101.947 227.317 102.009 227.412H102.094V226.545H102.904V232.156C102.904 232.625 102.797 233.006 102.584 233.3C102.374 233.596 102.089 233.812 101.732 233.95C101.377 234.089 100.982 234.159 100.546 234.159ZM100.517 231.162C100.854 231.162 101.138 231.085 101.37 230.931C101.602 230.777 101.778 230.556 101.899 230.267C102.02 229.978 102.08 229.633 102.08 229.23C102.08 228.837 102.021 228.49 101.902 228.19C101.784 227.889 101.609 227.653 101.377 227.483C101.145 227.312 100.858 227.227 100.517 227.227C100.162 227.227 99.8664 227.317 99.6297 227.497C99.3953 227.677 99.219 227.919 99.1006 228.222C98.9846 228.525 98.9266 228.861 98.9266 229.23C98.9266 229.609 98.9858 229.944 99.1041 230.235C99.2249 230.524 99.4024 230.751 99.6368 230.917C99.8736 231.08 100.167 231.162 100.517 231.162ZM106.043 232.128C105.697 232.128 105.384 232.063 105.102 231.933C104.82 231.8 104.597 231.609 104.431 231.361C104.265 231.11 104.182 230.807 104.182 230.452C104.182 230.139 104.244 229.886 104.367 229.692C104.49 229.495 104.655 229.341 104.861 229.23C105.066 229.119 105.294 229.036 105.542 228.982C105.793 228.925 106.045 228.88 106.299 228.847C106.63 228.804 106.899 228.772 107.105 228.751C107.313 228.727 107.465 228.688 107.559 228.634C107.656 228.579 107.705 228.484 107.705 228.349V228.321C107.705 227.971 107.609 227.698 107.417 227.504C107.228 227.31 106.94 227.213 106.554 227.213C106.154 227.213 105.841 227.301 105.613 227.476C105.386 227.651 105.226 227.838 105.134 228.037L104.339 227.753C104.481 227.421 104.67 227.163 104.907 226.979C105.146 226.792 105.406 226.661 105.688 226.588C105.972 226.512 106.251 226.474 106.526 226.474C106.701 226.474 106.902 226.496 107.13 226.538C107.359 226.579 107.581 226.663 107.794 226.79C108.009 226.918 108.188 227.111 108.33 227.369C108.472 227.627 108.543 227.973 108.543 228.406V232H107.705V231.261H107.662C107.606 231.38 107.511 231.506 107.378 231.641C107.246 231.776 107.069 231.891 106.849 231.986C106.629 232.08 106.36 232.128 106.043 232.128ZM106.171 231.375C106.502 231.375 106.782 231.31 107.009 231.18C107.239 231.049 107.411 230.881 107.527 230.675C107.646 230.469 107.705 230.253 107.705 230.026V229.259C107.669 229.301 107.591 229.34 107.471 229.376C107.352 229.409 107.215 229.438 107.059 229.464C106.905 229.488 106.754 229.509 106.608 229.528C106.463 229.545 106.346 229.559 106.256 229.571C106.038 229.599 105.835 229.646 105.645 229.71C105.458 229.771 105.307 229.865 105.191 229.99C105.077 230.113 105.02 230.281 105.02 230.494C105.02 230.786 105.128 231.006 105.343 231.155C105.561 231.302 105.837 231.375 106.171 231.375ZM110.073 232V226.545H110.911V232H110.073ZM110.499 225.636C110.335 225.636 110.195 225.581 110.076 225.469C109.96 225.358 109.902 225.224 109.902 225.068C109.902 224.912 109.96 224.778 110.076 224.667C110.195 224.556 110.335 224.5 110.499 224.5C110.662 224.5 110.802 224.556 110.918 224.667C111.036 224.778 111.095 224.912 111.095 225.068C111.095 225.224 111.036 225.358 110.918 225.469C110.802 225.581 110.662 225.636 110.499 225.636ZM113.284 228.719V232H112.446V226.545H113.255V227.398H113.326C113.454 227.121 113.648 226.898 113.909 226.73C114.169 226.56 114.505 226.474 114.917 226.474C115.287 226.474 115.61 226.55 115.887 226.702C116.164 226.851 116.379 227.078 116.533 227.384C116.687 227.687 116.764 228.07 116.764 228.534V232H115.926V228.591C115.926 228.162 115.815 227.829 115.592 227.589C115.37 227.348 115.064 227.227 114.676 227.227C114.408 227.227 114.169 227.285 113.959 227.401C113.75 227.517 113.586 227.687 113.465 227.909C113.344 228.132 113.284 228.402 113.284 228.719ZM123.395 232.114C122.869 232.114 122.416 231.998 122.035 231.766C121.656 231.531 121.364 231.205 121.158 230.786C120.954 230.364 120.852 229.874 120.852 229.315C120.852 228.757 120.954 228.264 121.158 227.838C121.364 227.41 121.65 227.076 122.017 226.837C122.386 226.595 122.817 226.474 123.31 226.474C123.594 226.474 123.874 226.522 124.151 226.616C124.428 226.711 124.68 226.865 124.908 227.078C125.135 227.289 125.316 227.568 125.451 227.916C125.586 228.264 125.653 228.693 125.653 229.202V229.557H121.449V228.832H124.801C124.801 228.525 124.739 228.25 124.616 228.009C124.496 227.767 124.323 227.576 124.098 227.437C123.875 227.297 123.613 227.227 123.31 227.227C122.976 227.227 122.687 227.31 122.443 227.476C122.202 227.639 122.016 227.852 121.886 228.115C121.755 228.378 121.69 228.66 121.69 228.96V229.443C121.69 229.855 121.761 230.204 121.903 230.491C122.048 230.775 122.248 230.991 122.503 231.141C122.759 231.287 123.056 231.361 123.395 231.361C123.615 231.361 123.814 231.33 123.991 231.268C124.171 231.205 124.326 231.11 124.457 230.984C124.587 230.857 124.687 230.698 124.758 230.509L125.568 230.736C125.483 231.01 125.34 231.252 125.138 231.46C124.937 231.666 124.689 231.827 124.393 231.943C124.097 232.057 123.764 232.114 123.395 232.114ZM127.407 226.545L128.714 228.776L130.02 226.545H130.986L129.225 229.273L130.986 232H130.02L128.714 229.884L127.407 232H126.441L128.174 229.273L126.441 226.545H127.407ZM132.182 234.045V226.545H132.992V227.412H133.091C133.153 227.317 133.238 227.196 133.347 227.05C133.458 226.901 133.617 226.768 133.823 226.652C134.031 226.534 134.313 226.474 134.668 226.474C135.127 226.474 135.532 226.589 135.882 226.819C136.233 227.049 136.506 227.374 136.703 227.795C136.899 228.217 136.997 228.714 136.997 229.287C136.997 229.865 136.899 230.365 136.703 230.789C136.506 231.21 136.234 231.537 135.886 231.769C135.538 231.999 135.137 232.114 134.682 232.114C134.332 232.114 134.051 232.056 133.84 231.94C133.63 231.821 133.468 231.687 133.354 231.538C133.24 231.387 133.153 231.261 133.091 231.162H133.02V234.045H132.182ZM133.006 229.273C133.006 229.685 133.066 230.048 133.187 230.363C133.308 230.675 133.484 230.92 133.716 231.098C133.948 231.273 134.232 231.361 134.568 231.361C134.919 231.361 135.211 231.268 135.446 231.084C135.682 230.897 135.86 230.646 135.978 230.331C136.099 230.014 136.159 229.661 136.159 229.273C136.159 228.889 136.1 228.544 135.982 228.236C135.866 227.926 135.689 227.681 135.453 227.501C135.218 227.318 134.924 227.227 134.568 227.227C134.228 227.227 133.941 227.314 133.709 227.487C133.477 227.657 133.302 227.896 133.184 228.204C133.065 228.509 133.006 228.866 133.006 229.273ZM140.492 232.114C139.999 232.114 139.567 231.996 139.196 231.762C138.826 231.528 138.537 231.2 138.329 230.778C138.123 230.357 138.02 229.865 138.02 229.301C138.02 228.733 138.123 228.237 138.329 227.813C138.537 227.389 138.826 227.06 139.196 226.826C139.567 226.592 139.999 226.474 140.492 226.474C140.984 226.474 141.415 226.592 141.784 226.826C142.156 227.06 142.445 227.389 142.651 227.813C142.859 228.237 142.963 228.733 142.963 229.301C142.963 229.865 142.859 230.357 142.651 230.778C142.445 231.2 142.156 231.528 141.784 231.762C141.415 231.996 140.984 232.114 140.492 232.114ZM140.492 231.361C140.866 231.361 141.174 231.265 141.415 231.073C141.657 230.881 141.835 230.629 141.951 230.317C142.067 230.004 142.125 229.666 142.125 229.301C142.125 228.937 142.067 228.597 141.951 228.282C141.835 227.967 141.657 227.713 141.415 227.518C141.174 227.324 140.866 227.227 140.492 227.227C140.118 227.227 139.81 227.324 139.568 227.518C139.327 227.713 139.148 227.967 139.032 228.282C138.916 228.597 138.858 228.937 138.858 229.301C138.858 229.666 138.916 230.004 139.032 230.317C139.148 230.629 139.327 230.881 139.568 231.073C139.81 231.265 140.118 231.361 140.492 231.361ZM148.106 227.767L147.353 227.98C147.306 227.855 147.236 227.733 147.144 227.614C147.054 227.494 146.931 227.394 146.775 227.316C146.618 227.238 146.418 227.199 146.174 227.199C145.841 227.199 145.562 227.276 145.34 227.43C145.12 227.581 145.01 227.774 145.01 228.009C145.01 228.217 145.085 228.381 145.237 228.502C145.388 228.623 145.625 228.723 145.947 228.804L146.757 229.003C147.245 229.121 147.608 229.302 147.847 229.546C148.086 229.788 148.206 230.099 148.206 230.48C148.206 230.793 148.116 231.072 147.936 231.318C147.758 231.564 147.51 231.759 147.19 231.901C146.87 232.043 146.499 232.114 146.075 232.114C145.519 232.114 145.058 231.993 144.694 231.751C144.329 231.51 144.098 231.157 144.001 230.693L144.797 230.494C144.872 230.788 145.016 231.008 145.226 231.155C145.439 231.302 145.718 231.375 146.061 231.375C146.451 231.375 146.762 231.292 146.991 231.126C147.223 230.958 147.339 230.757 147.339 230.523C147.339 230.333 147.273 230.175 147.14 230.047C147.008 229.917 146.804 229.82 146.53 229.756L145.62 229.543C145.121 229.424 144.754 229.241 144.52 228.992C144.288 228.741 144.172 228.428 144.172 228.051C144.172 227.743 144.258 227.471 144.431 227.234C144.606 226.998 144.844 226.812 145.145 226.677C145.448 226.542 145.791 226.474 146.174 226.474C146.714 226.474 147.138 226.593 147.446 226.83C147.756 227.066 147.976 227.379 148.106 227.767ZM152.905 229.77V226.545H153.743V232H152.905V231.077H152.848C152.72 231.354 152.521 231.589 152.251 231.783C151.981 231.975 151.641 232.071 151.229 232.071C150.888 232.071 150.585 231.996 150.32 231.847C150.054 231.696 149.846 231.469 149.695 231.165C149.543 230.86 149.467 230.475 149.467 230.011V226.545H150.305V229.955C150.305 230.352 150.417 230.67 150.639 230.906C150.864 231.143 151.15 231.261 151.498 231.261C151.707 231.261 151.919 231.208 152.134 231.102C152.352 230.995 152.534 230.832 152.681 230.612C152.83 230.391 152.905 230.111 152.905 229.77ZM155.278 232V226.545H156.087V227.369H156.144C156.244 227.099 156.424 226.88 156.684 226.712C156.944 226.544 157.238 226.46 157.565 226.46C157.626 226.46 157.703 226.461 157.796 226.464C157.888 226.466 157.958 226.47 158.005 226.474V227.327C157.977 227.32 157.912 227.309 157.81 227.295C157.71 227.278 157.605 227.27 157.494 227.27C157.229 227.27 156.992 227.326 156.783 227.437C156.578 227.546 156.414 227.697 156.293 227.891C156.175 228.083 156.116 228.302 156.116 228.548V232H155.278ZM161.119 232.114C160.594 232.114 160.14 231.998 159.759 231.766C159.381 231.531 159.088 231.205 158.882 230.786C158.679 230.364 158.577 229.874 158.577 229.315C158.577 228.757 158.679 228.264 158.882 227.838C159.088 227.41 159.375 227.076 159.742 226.837C160.111 226.595 160.542 226.474 161.034 226.474C161.318 226.474 161.599 226.522 161.876 226.616C162.153 226.711 162.405 226.865 162.632 227.078C162.859 227.289 163.041 227.568 163.176 227.916C163.31 228.264 163.378 228.693 163.378 229.202V229.557H159.173V228.832H162.526C162.526 228.525 162.464 228.25 162.341 228.009C162.22 227.767 162.047 227.576 161.823 227.437C161.6 227.297 161.337 227.227 161.034 227.227C160.7 227.227 160.412 227.31 160.168 227.476C159.926 227.639 159.74 227.852 159.61 228.115C159.48 228.378 159.415 228.66 159.415 228.96V229.443C159.415 229.855 159.486 230.204 159.628 230.491C159.772 230.775 159.972 230.991 160.228 231.141C160.484 231.287 160.781 231.361 161.119 231.361C161.34 231.361 161.538 231.33 161.716 231.268C161.896 231.205 162.051 231.11 162.181 230.984C162.311 230.857 162.412 230.698 162.483 230.509L163.293 230.736C163.207 231.01 163.064 231.252 162.863 231.46C162.662 231.666 162.413 231.827 162.117 231.943C161.821 232.057 161.489 232.114 161.119 232.114ZM167.465 232V226.545H168.303V232H167.465ZM167.891 225.636C167.728 225.636 167.587 225.581 167.469 225.469C167.353 225.358 167.295 225.224 167.295 225.068C167.295 224.912 167.353 224.778 167.469 224.667C167.587 224.556 167.728 224.5 167.891 224.5C168.055 224.5 168.194 224.556 168.31 224.667C168.429 224.778 168.488 224.912 168.488 225.068C168.488 225.224 168.429 225.358 168.31 225.469C168.194 225.581 168.055 225.636 167.891 225.636ZM170.676 228.719V232H169.838V226.545H170.648V227.398H170.719C170.847 227.121 171.041 226.898 171.301 226.73C171.562 226.56 171.898 226.474 172.31 226.474C172.679 226.474 173.002 226.55 173.279 226.702C173.556 226.851 173.772 227.078 173.926 227.384C174.08 227.687 174.157 228.07 174.157 228.534V232H173.318V228.591C173.318 228.162 173.207 227.829 172.985 227.589C172.762 227.348 172.457 227.227 172.068 227.227C171.801 227.227 171.562 227.285 171.351 227.401C171.143 227.517 170.978 227.687 170.858 227.909C170.737 228.132 170.676 228.402 170.676 228.719ZM74.5103 238.545V239.256H71.6836V238.545H74.5103ZM72.5075 237.239H73.3455V242.438C73.3455 242.674 73.3799 242.852 73.4485 242.97C73.5195 243.086 73.6095 243.164 73.7184 243.205C73.8297 243.242 73.9469 243.261 74.07 243.261C74.1623 243.261 74.238 243.257 74.2972 243.247C74.3564 243.235 74.4038 243.226 74.4393 243.219L74.6097 243.972C74.5529 243.993 74.4736 244.014 74.3718 244.036C74.27 244.059 74.141 244.071 73.9847 244.071C73.748 244.071 73.516 244.02 73.2887 243.918C73.0638 243.817 72.8768 243.661 72.7276 243.453C72.5808 243.245 72.5075 242.982 72.5075 242.665V237.239ZM76.7262 240.719V244H75.8881V236.727H76.7262V239.398H76.7972C76.9251 239.116 77.1168 238.892 77.3725 238.727C77.6306 238.558 77.9738 238.474 78.4023 238.474C78.774 238.474 79.0996 238.549 79.3789 238.698C79.6583 238.845 79.8749 239.071 80.0288 239.376C80.185 239.679 80.2631 240.065 80.2631 240.534V244H79.4251V240.591C79.4251 240.158 79.3126 239.823 79.0877 239.586C78.8652 239.347 78.5562 239.227 78.1609 239.227C77.8862 239.227 77.64 239.285 77.4222 239.401C77.2068 239.517 77.0363 239.687 76.9109 239.909C76.7878 240.132 76.7262 240.402 76.7262 240.719ZM84.0833 244.114C83.5577 244.114 83.1043 243.998 82.7232 243.766C82.3444 243.531 82.052 243.205 81.8461 242.786C81.6425 242.364 81.5407 241.874 81.5407 241.315C81.5407 240.757 81.6425 240.264 81.8461 239.838C82.052 239.41 82.3385 239.076 82.7054 238.837C83.0748 238.595 83.5056 238.474 83.998 238.474C84.2821 238.474 84.5627 238.522 84.8397 238.616C85.1167 238.711 85.3688 238.865 85.5961 239.078C85.8233 239.289 86.0044 239.568 86.1394 239.916C86.2743 240.264 86.3418 240.693 86.3418 241.202V241.557H82.1373V240.832H85.4895C85.4895 240.525 85.428 240.25 85.3049 240.009C85.1841 239.767 85.0113 239.576 84.7864 239.437C84.5639 239.297 84.3011 239.227 83.998 239.227C83.6642 239.227 83.3754 239.31 83.1316 239.476C82.8901 239.639 82.7042 239.852 82.574 240.115C82.4438 240.378 82.3787 240.66 82.3787 240.96V241.443C82.3787 241.855 82.4498 242.204 82.5918 242.491C82.7362 242.775 82.9363 242.991 83.1919 243.141C83.4476 243.287 83.7447 243.361 84.0833 243.361C84.3034 243.361 84.5023 243.33 84.6799 243.268C84.8598 243.205 85.0149 243.11 85.1451 242.984C85.2753 242.857 85.3759 242.698 85.4469 242.509L86.2566 242.736C86.1713 243.01 86.0281 243.252 85.8269 243.46C85.6257 243.666 85.3771 243.827 85.0811 243.943C84.7852 244.057 84.4526 244.114 84.0833 244.114ZM90.4292 244V238.545H91.2672V244H90.4292ZM90.8553 237.636C90.6919 237.636 90.5511 237.581 90.4327 237.469C90.3167 237.358 90.2587 237.224 90.2587 237.068C90.2587 236.912 90.3167 236.778 90.4327 236.667C90.5511 236.556 90.6919 236.5 90.8553 236.5C91.0186 236.5 91.1583 236.556 91.2743 236.667C91.3927 236.778 91.4519 236.912 91.4519 237.068C91.4519 237.224 91.3927 237.358 91.2743 237.469C91.1583 237.581 91.0186 237.636 90.8553 237.636ZM93.6403 240.719V244H92.8022V238.545H93.6119V239.398H93.6829C93.8107 239.121 94.0049 238.898 94.2653 238.73C94.5257 238.56 94.8619 238.474 95.2738 238.474C95.6431 238.474 95.9663 238.55 96.2433 238.702C96.5202 238.851 96.7357 239.078 96.8896 239.384C97.0434 239.687 97.1204 240.07 97.1204 240.534V244H96.2823V240.591C96.2823 240.162 96.171 239.829 95.9485 239.589C95.726 239.348 95.4206 239.227 95.0323 239.227C94.7648 239.227 94.5257 239.285 94.315 239.401C94.1067 239.517 93.9421 239.687 93.8214 239.909C93.7006 240.132 93.6403 240.402 93.6403 240.719ZM100.711 244.114C100.257 244.114 99.8556 243.999 99.5076 243.769C99.1596 243.537 98.8874 243.21 98.6909 242.789C98.4944 242.365 98.3961 241.865 98.3961 241.287C98.3961 240.714 98.4944 240.217 98.6909 239.795C98.8874 239.374 99.1608 239.049 99.5112 238.819C99.8616 238.589 100.266 238.474 100.726 238.474C101.081 238.474 101.361 238.534 101.567 238.652C101.776 238.768 101.934 238.901 102.043 239.05C102.154 239.196 102.241 239.317 102.302 239.412H102.373V236.727H103.211V244H102.402V243.162H102.302C102.241 243.261 102.153 243.387 102.04 243.538C101.926 243.687 101.764 243.821 101.553 243.94C101.342 244.056 101.062 244.114 100.711 244.114ZM100.825 243.361C101.161 243.361 101.445 243.273 101.677 243.098C101.909 242.92 102.086 242.675 102.206 242.363C102.327 242.048 102.388 241.685 102.388 241.273C102.388 240.866 102.328 240.509 102.21 240.204C102.092 239.896 101.916 239.657 101.684 239.487C101.452 239.314 101.166 239.227 100.825 239.227C100.47 239.227 100.174 239.318 99.9373 239.501C99.7029 239.681 99.5266 239.926 99.4082 240.236C99.2922 240.544 99.2342 240.889 99.2342 241.273C99.2342 241.661 99.2934 242.014 99.4118 242.331C99.5325 242.646 99.71 242.897 99.9444 243.084C100.181 243.268 100.475 243.361 100.825 243.361ZM108.3 241.77V238.545H109.138V244H108.3V243.077H108.243C108.116 243.354 107.917 243.589 107.647 243.783C107.377 243.975 107.036 244.071 106.624 244.071C106.283 244.071 105.98 243.996 105.715 243.847C105.45 243.696 105.242 243.469 105.09 243.165C104.939 242.86 104.863 242.475 104.863 242.011V238.545H105.701V241.955C105.701 242.352 105.812 242.67 106.035 242.906C106.26 243.143 106.546 243.261 106.894 243.261C107.102 243.261 107.314 243.208 107.53 243.102C107.747 242.995 107.93 242.832 108.077 242.612C108.226 242.391 108.3 242.111 108.3 241.77ZM114.537 239.767L113.784 239.98C113.737 239.855 113.667 239.733 113.575 239.614C113.485 239.494 113.362 239.394 113.205 239.316C113.049 239.238 112.849 239.199 112.605 239.199C112.271 239.199 111.993 239.276 111.771 239.43C111.55 239.581 111.44 239.774 111.44 240.009C111.44 240.217 111.516 240.381 111.668 240.502C111.819 240.623 112.056 240.723 112.378 240.804L113.188 241.003C113.675 241.121 114.039 241.302 114.278 241.546C114.517 241.788 114.636 242.099 114.636 242.48C114.636 242.793 114.546 243.072 114.366 243.318C114.189 243.564 113.94 243.759 113.621 243.901C113.301 244.043 112.929 244.114 112.506 244.114C111.949 244.114 111.489 243.993 111.124 243.751C110.76 243.51 110.529 243.157 110.432 242.693L111.227 242.494C111.303 242.788 111.446 243.008 111.657 243.155C111.87 243.302 112.148 243.375 112.491 243.375C112.882 243.375 113.192 243.292 113.422 243.126C113.654 242.958 113.77 242.757 113.77 242.523C113.77 242.333 113.704 242.175 113.571 242.047C113.438 241.917 113.235 241.82 112.96 241.756L112.051 241.543C111.552 241.424 111.185 241.241 110.95 240.992C110.718 240.741 110.602 240.428 110.602 240.051C110.602 239.743 110.689 239.471 110.862 239.234C111.037 238.998 111.275 238.812 111.575 238.677C111.878 238.542 112.222 238.474 112.605 238.474C113.145 238.474 113.569 238.593 113.876 238.83C114.187 239.066 114.407 239.379 114.537 239.767ZM118.27 238.545V239.256H115.443V238.545H118.27ZM116.267 237.239H117.105V242.438C117.105 242.674 117.14 242.852 117.208 242.97C117.279 243.086 117.369 243.164 117.478 243.205C117.589 243.242 117.707 243.261 117.83 243.261C117.922 243.261 117.998 243.257 118.057 243.247C118.116 243.235 118.164 243.226 118.199 243.219L118.369 243.972C118.313 243.993 118.233 244.014 118.132 244.036C118.03 244.059 117.901 244.071 117.744 244.071C117.508 244.071 117.276 244.02 117.048 243.918C116.824 243.817 116.637 243.661 116.487 243.453C116.341 243.245 116.267 242.982 116.267 242.665V237.239ZM119.531 244V238.545H120.34V239.369H120.397C120.497 239.099 120.677 238.88 120.937 238.712C121.197 238.544 121.491 238.46 121.818 238.46C121.879 238.46 121.956 238.461 122.048 238.464C122.141 238.466 122.211 238.47 122.258 238.474V239.327C122.23 239.32 122.164 239.309 122.063 239.295C121.963 239.278 121.858 239.27 121.747 239.27C121.481 239.27 121.245 239.326 121.036 239.437C120.83 239.546 120.667 239.697 120.546 239.891C120.428 240.083 120.369 240.302 120.369 240.548V244H119.531ZM123.957 246.045C123.815 246.045 123.689 246.034 123.577 246.01C123.466 245.989 123.389 245.967 123.346 245.946L123.559 245.207C123.763 245.259 123.943 245.278 124.099 245.264C124.256 245.25 124.394 245.18 124.515 245.055C124.638 244.932 124.75 244.732 124.852 244.455L125.008 244.028L122.991 238.545H123.9L125.406 242.892H125.463L126.969 238.545H127.878L125.562 244.795C125.458 245.077 125.329 245.31 125.175 245.495C125.021 245.682 124.843 245.821 124.639 245.911C124.438 246 124.211 246.045 123.957 246.045ZM129.253 244.057C129.078 244.057 128.927 243.994 128.802 243.869C128.676 243.743 128.614 243.593 128.614 243.418C128.614 243.242 128.676 243.092 128.802 242.967C128.927 242.841 129.078 242.778 129.253 242.778C129.428 242.778 129.578 242.841 129.704 242.967C129.829 243.092 129.892 243.242 129.892 243.418C129.892 243.534 129.862 243.64 129.803 243.737C129.746 243.834 129.67 243.912 129.572 243.972C129.478 244.028 129.371 244.057 129.253 244.057Z" fill="black"/>
<path d="M70.036 172.14H66.388L65.716 174H64.564L67.588 165.684H68.848L71.86 174H70.708L70.036 172.14ZM69.724 171.252L68.212 167.028L66.7 171.252H69.724ZM74.2699 168.492C74.4619 168.116 74.7339 167.824 75.0859 167.616C75.4459 167.408 75.8819 167.304 76.3939 167.304V168.432H76.1059C74.8819 168.432 74.2699 169.096 74.2699 170.424V174H73.1779V167.424H74.2699V168.492ZM78.9865 168.324V172.2C78.9865 172.52 79.0545 172.748 79.1905 172.884C79.3265 173.012 79.5625 173.076 79.8985 173.076H80.7025V174H79.7185C79.1105 174 78.6545 173.86 78.3505 173.58C78.0465 173.3 77.8945 172.84 77.8945 172.2V168.324H77.0425V167.424H77.8945V165.768H78.9865V167.424H80.7025V168.324H78.9865ZM86.3168 166.524V169.32H89.3648V170.22H86.3168V173.1H89.7248V174H85.2248V165.624H89.7248V166.524H86.3168ZM94.8091 174L93.2491 171.552L91.7491 174H90.6091L92.7331 170.736L90.6091 167.424H91.8451L93.4051 169.86L94.8931 167.424H96.0331L93.9211 170.676L96.0451 174H94.8091ZM100.383 167.304C100.879 167.304 101.327 167.412 101.727 167.628C102.127 167.836 102.439 168.152 102.663 168.576C102.895 169 103.011 169.516 103.011 170.124V174H101.931V170.28C101.931 169.624 101.767 169.124 101.439 168.78C101.111 168.428 100.663 168.252 100.095 168.252C99.5193 168.252 99.0593 168.432 98.7153 168.792C98.3793 169.152 98.2113 169.676 98.2113 170.364V174H97.1193V165.12H98.2113V168.36C98.4273 168.024 98.7233 167.764 99.0993 167.58C99.4833 167.396 99.9113 167.304 100.383 167.304ZM105.359 166.356C105.151 166.356 104.975 166.284 104.831 166.14C104.687 165.996 104.615 165.82 104.615 165.612C104.615 165.404 104.687 165.228 104.831 165.084C104.975 164.94 105.151 164.868 105.359 164.868C105.559 164.868 105.727 164.94 105.863 165.084C106.007 165.228 106.079 165.404 106.079 165.612C106.079 165.82 106.007 165.996 105.863 166.14C105.727 166.284 105.559 166.356 105.359 166.356ZM105.887 167.424V174H104.795V167.424H105.887ZM108.84 168.648C109.064 168.256 109.392 167.936 109.824 167.688C110.256 167.44 110.748 167.316 111.3 167.316C111.892 167.316 112.424 167.456 112.896 167.736C113.368 168.016 113.74 168.412 114.012 168.924C114.284 169.428 114.42 170.016 114.42 170.688C114.42 171.352 114.284 171.944 114.012 172.464C113.74 172.984 113.364 173.388 112.884 173.676C112.412 173.964 111.884 174.108 111.3 174.108C110.732 174.108 110.232 173.984 109.8 173.736C109.376 173.488 109.056 173.172 108.84 172.788V174H107.748V165.12H108.84V168.648ZM113.304 170.688C113.304 170.192 113.204 169.76 113.004 169.392C112.804 169.024 112.532 168.744 112.188 168.552C111.852 168.36 111.48 168.264 111.072 168.264C110.672 168.264 110.3 168.364 109.956 168.564C109.62 168.756 109.348 169.04 109.14 169.416C108.94 169.784 108.84 170.212 108.84 170.7C108.84 171.196 108.94 171.632 109.14 172.008C109.348 172.376 109.62 172.66 109.956 172.86C110.3 173.052 110.672 173.148 111.072 173.148C111.48 173.148 111.852 173.052 112.188 172.86C112.532 172.66 112.804 172.376 113.004 172.008C113.204 171.632 113.304 171.192 113.304 170.688ZM116.422 166.356C116.214 166.356 116.038 166.284 115.894 166.14C115.75 165.996 115.678 165.82 115.678 165.612C115.678 165.404 115.75 165.228 115.894 165.084C116.038 164.94 116.214 164.868 116.422 164.868C116.622 164.868 116.79 164.94 116.926 165.084C117.07 165.228 117.142 165.404 117.142 165.612C117.142 165.82 117.07 165.996 116.926 166.14C116.79 166.284 116.622 166.356 116.422 166.356ZM116.95 167.424V174H115.858V167.424H116.95ZM120.143 168.324V172.2C120.143 172.52 120.211 172.748 120.347 172.884C120.483 173.012 120.719 173.076 121.055 173.076H121.859V174H120.875C120.267 174 119.811 173.86 119.507 173.58C119.203 173.3 119.051 172.84 119.051 172.2V168.324H118.199V167.424H119.051V165.768H120.143V167.424H121.859V168.324H120.143ZM123.746 166.356C123.538 166.356 123.362 166.284 123.218 166.14C123.074 165.996 123.002 165.82 123.002 165.612C123.002 165.404 123.074 165.228 123.218 165.084C123.362 164.94 123.538 164.868 123.746 164.868C123.946 164.868 124.114 164.94 124.25 165.084C124.394 165.228 124.466 165.404 124.466 165.612C124.466 165.82 124.394 165.996 124.25 166.14C124.114 166.284 123.946 166.356 123.746 166.356ZM124.274 167.424V174H123.182V167.424H124.274ZM129.003 174.108C128.387 174.108 127.827 173.968 127.323 173.688C126.827 173.408 126.435 173.012 126.147 172.5C125.867 171.98 125.727 171.38 125.727 170.7C125.727 170.028 125.871 169.436 126.159 168.924C126.455 168.404 126.855 168.008 127.359 167.736C127.863 167.456 128.427 167.316 129.051 167.316C129.675 167.316 130.239 167.456 130.743 167.736C131.247 168.008 131.643 168.4 131.931 168.912C132.227 169.424 132.375 170.02 132.375 170.7C132.375 171.38 132.223 171.98 131.919 172.5C131.623 173.012 131.219 173.408 130.707 173.688C130.195 173.968 129.627 174.108 129.003 174.108ZM129.003 173.148C129.395 173.148 129.763 173.056 130.107 172.872C130.451 172.688 130.727 172.412 130.935 172.044C131.151 171.676 131.259 171.228 131.259 170.7C131.259 170.172 131.155 169.724 130.947 169.356C130.739 168.988 130.467 168.716 130.131 168.54C129.795 168.356 129.431 168.264 129.039 168.264C128.639 168.264 128.271 168.356 127.935 168.54C127.607 168.716 127.343 168.988 127.143 169.356C126.943 169.724 126.843 170.172 126.843 170.7C126.843 171.236 126.939 171.688 127.131 172.056C127.331 172.424 127.595 172.7 127.923 172.884C128.251 173.06 128.611 173.148 129.003 173.148ZM137.015 167.304C137.815 167.304 138.463 167.548 138.959 168.036C139.455 168.516 139.703 169.212 139.703 170.124V174H138.623V170.28C138.623 169.624 138.459 169.124 138.131 168.78C137.803 168.428 137.355 168.252 136.787 168.252C136.211 168.252 135.751 168.432 135.407 168.792C135.071 169.152 134.903 169.676 134.903 170.364V174H133.811V167.424H134.903V168.36C135.119 168.024 135.411 167.764 135.779 167.58C136.155 167.396 136.567 167.304 137.015 167.304ZM143.815 174.108C143.311 174.108 142.859 174.024 142.459 173.856C142.059 173.68 141.743 173.44 141.511 173.136C141.279 172.824 141.151 172.468 141.127 172.068H142.255C142.287 172.396 142.439 172.664 142.711 172.872C142.991 173.08 143.355 173.184 143.803 173.184C144.219 173.184 144.547 173.092 144.787 172.908C145.027 172.724 145.147 172.492 145.147 172.212C145.147 171.924 145.019 171.712 144.763 171.576C144.507 171.432 144.111 171.292 143.575 171.156C143.087 171.028 142.687 170.9 142.375 170.772C142.071 170.636 141.807 170.44 141.583 170.184C141.367 169.92 141.259 169.576 141.259 169.152C141.259 168.816 141.359 168.508 141.559 168.228C141.759 167.948 142.043 167.728 142.411 167.568C142.779 167.4 143.199 167.316 143.671 167.316C144.399 167.316 144.987 167.5 145.435 167.868C145.883 168.236 146.123 168.74 146.155 169.38H145.063C145.039 169.036 144.899 168.76 144.643 168.552C144.395 168.344 144.059 168.24 143.635 168.24C143.243 168.24 142.931 168.324 142.699 168.492C142.467 168.66 142.351 168.88 142.351 169.152C142.351 169.368 142.419 169.548 142.555 169.692C142.699 169.828 142.875 169.94 143.083 170.028C143.299 170.108 143.595 170.2 143.971 170.304C144.443 170.432 144.827 170.56 145.123 170.688C145.419 170.808 145.671 170.992 145.879 171.24C146.095 171.488 146.207 171.812 146.215 172.212C146.215 172.572 146.115 172.896 145.915 173.184C145.715 173.472 145.431 173.7 145.063 173.868C144.703 174.028 144.287 174.108 143.815 174.108Z" fill="black"/>
<path d="M58.3106 124.504C59.3392 129.751 62.8625 133 62.8625 133C62.8625 133 64.718 127.743 63.6894 122.496C62.6608 117.249 59.1375 114 59.1375 114C59.1375 114 57.282 119.257 58.3106 124.504Z" fill="#3F3D56"/>
<path d="M59.9013 122.49C62.6627 126.633 63 133 63 133C63 133 58.8601 132.652 56.0987 128.51C53.3373 124.367 53 118 53 118C53 118 57.1399 118.348 59.9013 122.49Z" fill="#D6CF00"/>
<path d="M64 139H60V133H64V139ZM60.3077 138.538H63.6923V133.462H60.3077V138.538Z" fill="#3F3D56"/>
<path d="M73 33H39V82H73V33Z" fill="#3F3D56"/>
<path d="M73 43.9865V45C72.478 44.5541 72.0567 43.9383 71.7786 43.215C71.3227 42.0126 71.3371 40.6267 71.3516 39.286C71.3681 37.6925 71.3846 36.1895 70.6006 35.2106C69.7382 34.1359 68.358 34.2875 67.0231 34.4338C66.8663 34.4498 66.7095 34.4684 66.5548 34.4844C65.2158 34.6147 63.7242 34.1785 63 33H63.9036C64.5659 33.5746 65.5789 33.7768 66.5094 33.6863C66.66 33.673 66.8147 33.6544 66.9695 33.6384C68.3745 33.4842 69.9672 33.3086 71.0297 34.636C72.0076 35.8543 71.9891 37.6047 71.9705 39.2966C71.9561 40.5442 71.9437 41.8317 72.3357 42.8639C72.4983 43.2903 72.724 43.6716 73 43.9865Z" fill="#D6CF00"/>
<path d="M73 51.763V53C72.8489 52.736 72.6795 52.4918 72.4939 52.2706C71.4236 51.0086 69.8867 50.7312 68.4016 50.4594C68.2087 50.4261 68.0199 50.3901 67.8312 50.354C65.4231 49.8909 63.9297 48.7842 63.268 46.9786C62.8096 45.725 62.8241 44.28 62.8386 42.8821C62.8552 41.2208 62.8718 39.6537 62.0836 38.6331C61.2166 37.5125 59.829 37.6706 58.487 37.8232C58.3294 37.8398 58.1718 37.8592 58.0162 37.8759C56.2863 38.0506 54.3014 37.2491 54.0296 35.0829C53.9363 34.3396 54.0753 33.6573 54.2806 33H54.9609C54.7328 33.6601 54.5627 34.298 54.6436 34.9443C54.8489 36.5973 56.5124 37.1908 57.9706 37.0438C58.122 37.0299 58.2775 37.0105 58.4331 36.9939C59.8456 36.833 61.4469 36.65 62.5151 38.034C63.4982 39.3043 63.4796 41.1292 63.4609 42.8932C63.4464 44.194 63.4339 45.5364 63.828 46.6125C64.3922 48.1546 65.73 49.1087 67.9204 49.5303C68.107 49.5664 68.2958 49.6024 68.4845 49.6357C70.0609 49.9214 71.6933 50.2181 72.9067 51.6465C72.9378 51.6826 72.9689 51.7214 73 51.763Z" fill="#D6CF00"/>
<path d="M73 74.2222V76C72.2503 74.8917 71.6232 73.3708 71.1435 71.4688C71.0417 71.0648 70.9441 70.652 70.8465 70.2393C70.3087 67.9795 69.7521 65.6447 68.4273 64.1526C67.011 62.5594 64.9821 62.2073 63.0197 61.8668C62.7684 61.8235 62.5172 61.7802 62.268 61.734C59.0866 61.1481 57.1158 59.7541 56.2416 57.4741C55.6352 55.8897 55.6539 54.0656 55.6726 52.3022C55.6954 50.2069 55.7183 48.2271 54.6758 46.9399C53.5316 45.5257 51.6979 45.7248 49.9265 45.9182C49.7168 45.9413 49.5091 45.9644 49.3056 45.9846C47.0193 46.2039 44.3965 45.1938 44.0393 42.4606C43.8628 41.1215 44.3134 39.9353 44.7474 38.7866C44.9966 38.1286 45.2333 37.5023 45.3538 36.8587C45.6071 35.534 45.2936 34.0419 44.5979 33H45.6154C45.9091 33.5927 46.1089 34.2652 46.2016 34.9732C46.2943 35.6812 46.2778 36.4084 46.1533 37.1069C46.01 37.8602 45.7442 38.5644 45.4867 39.2455C45.0901 40.2903 44.7183 41.2773 44.8492 42.2875C45.1233 44.3712 47.3183 45.1216 49.2433 44.9369C49.4448 44.9167 49.6503 44.8936 49.8559 44.8734C51.7208 44.6685 53.8348 44.4405 55.2469 46.1866C56.5448 47.7884 56.5198 50.0915 56.4949 52.3167C56.4783 53.9589 56.4596 55.653 56.9788 57.0124C57.7243 58.9547 59.4936 60.1611 62.3863 60.695C62.6314 60.7412 62.8806 60.7845 63.1298 60.8278C65.2147 61.1885 67.3682 61.5608 68.9693 63.3646C70.4707 65.0559 71.0625 67.5351 71.6315 69.9334C71.7291 70.3432 71.8267 70.7473 71.9264 71.1485C72.1904 72.2314 72.5511 73.264 73 74.2222V74.2222Z" fill="#D6CF00"/>
<path d="M39 52.0597C39.9204 53.7296 41.8722 54.3468 43.6221 54.1653C43.8199 54.1441 44.0218 54.1199 44.2256 54.0957C45.9473 53.893 47.7295 53.6842 48.8417 55.1666C49.8549 56.5158 49.8327 58.5911 49.8105 60.7874C49.7923 62.6358 49.7742 64.5477 50.3635 66.2085C51.2133 68.5984 53.1287 70.0596 56.2209 70.6737C56.4631 70.7221 56.7073 70.7675 56.9516 70.8129C58.8589 71.1698 60.8309 71.5389 62.2074 73.2088C63.4952 74.7728 64.0361 77.2202 64.5589 79.5889C64.6537 80.0215 64.7486 80.4541 64.8475 80.8777C64.9383 81.2679 65.0352 81.64 65.1361 82H66C65.8486 81.5069 65.7194 81.0138 65.6084 80.5419C65.5115 80.1214 65.4167 79.6978 65.3218 79.2683C64.7688 76.7543 64.1935 74.1557 62.7342 72.3829C61.1781 70.4922 59.085 70.1019 57.0585 69.7238C56.8163 69.6784 56.5741 69.633 56.336 69.5846C53.5243 69.025 51.8047 67.7605 51.0801 65.7245C50.5755 64.2996 50.5936 62.5239 50.6098 60.8025C50.634 58.4701 50.6582 56.056 49.3967 54.377C48.0242 52.5468 45.9695 52.7858 44.157 53.0006C43.9572 53.0217 43.7573 53.0459 43.5616 53.0671C41.6905 53.2607 39.5571 52.4742 39.2907 50.29C39.1635 49.2312 39.5248 48.1966 39.9103 47.1015C40.1606 46.3875 40.4189 45.6494 40.5582 44.8598C40.9377 42.6998 40.2978 40.3069 39 39V40.4823C39.7085 41.5775 40.0314 43.1778 39.7811 44.5996C39.6641 45.2742 39.434 45.9307 39.1918 46.6204C39.1272 46.805 39.0626 46.9865 39 47.1741L39 52.0597Z" fill="#D6CF00"/>
<path d="M54 82H53.1523C53.1073 81.8056 53.0644 81.6082 53.0195 81.4108C52.4904 79.0692 51.9429 76.6497 50.6397 75.1036C49.2465 73.4527 47.2507 73.0879 45.3203 72.7349C45.0731 72.6901 44.826 72.6452 44.5808 72.5974C41.819 72.062 39.9826 70.8718 39 68.9757V66C39.0631 66.5941 39.1907 67.1695 39.3779 67.7047C40.1113 69.7174 41.8517 70.9675 44.6973 71.5207C44.9383 71.5686 45.1834 71.6134 45.4286 71.6583C47.4795 72.0321 49.5979 72.4179 51.1728 74.2871C52.6497 76.0396 53.2319 78.6086 53.7916 81.0938C53.8611 81.3989 53.9285 81.7009 54 82Z" fill="#D6CF00"/>
<path d="M118 33H85V82H118V33Z" fill="#3F3D56"/>
<path d="M101 36.5077C101 39.2415 100.505 41.9265 99.5651 44.2902C98.6254 46.6539 97.2745 48.6122 95.6496 49.9662C94.0247 51.3202 92.1836 52.0217 90.3132 51.9995C88.4428 51.9773 86.6097 51.2322 85 49.8398V33H100.726C100.909 34.15 101.001 35.327 101 36.5077V36.5077Z" fill="#D6CF00"/>
<path d="M109.5 55C113.09 55 116 50.7467 116 45.5C116 40.2533 113.09 36 109.5 36C105.91 36 103 40.2533 103 45.5C103 50.7467 105.91 55 109.5 55Z" fill="#D6CF00"/>
<path d="M95 73C97.7614 73 100 69.866 100 66C100 62.134 97.7614 59 95 59C92.2386 59 90 62.134 90 66C90 69.866 92.2386 73 95 73Z" fill="#D6CF00"/>
<path d="M118 73.84V82H111.225C110.937 80.6874 110.925 79.2794 111.192 77.9572C111.458 76.6351 111.99 75.4594 112.719 74.5816C113.448 73.7037 114.34 73.164 115.281 73.0318C116.223 72.8997 117.169 73.1811 118 73.84H118Z" fill="#D6CF00"/>
<path d="M106.5 67C107.328 67 108 66.1046 108 65C108 63.8954 107.328 63 106.5 63C105.672 63 105 63.8954 105 65C105 66.1046 105.672 67 106.5 67Z" fill="#D6CF00"/>
<path d="M164 33H130V82H164V33Z" fill="#3F3D56"/>
<path d="M147.153 33V51.8889H130V53H148V33H147.153Z" fill="#D6CF00"/>
<path d="M162.56 82L164 78.9972V76.8611L161.536 82H162.56ZM156.714 60L149 76.0897L154.731 82H156.188L150.167 75.7916L156.917 61.7119L164 69.0176V67.5147L156.714 60Z" fill="#D6CF00"/>
<path d="M144.5 58L140 64L144.5 70L149 64L144.5 58ZM141.199 64L144.5 59.5983L147.801 64L144.5 68.4017L141.199 64Z" fill="#D6CF00"/>
<path d="M55.5 37C57.433 37 59 34.9853 59 32.5C59 30.0147 57.433 28 55.5 28C53.567 28 52 30.0147 52 32.5C52 34.9853 53.567 37 55.5 37Z" fill="#F2F2F2"/>
<path d="M103 37C104.657 37 106 34.9853 106 32.5C106 30.0147 104.657 28 103 28C101.343 28 100 30.0147 100 32.5C100 34.9853 101.343 37 103 37Z" fill="#F2F2F2"/>
<path d="M148 37C149.657 37 151 34.9853 151 32.5C151 30.0147 149.657 28 148 28C146.343 28 145 30.0147 145 32.5C145 34.9853 146.343 37 148 37Z" fill="#F2F2F2"/>
<path d="M99.5 58C100.881 58 102 56.2091 102 54C102 51.7909 100.881 50 99.5 50C98.1193 50 97 51.7909 97 54C97 56.2091 98.1193 58 99.5 58Z" fill="#FFB8B8"/>
<path d="M98 56.0696C98 56.0696 98.8065 61.5631 98.4839 62.6196C98.1613 63.676 103 62.197 103 62.197C103 62.197 102.032 56.7035 102.194 55.4358C102.355 54.1681 98 56.0696 98 56.0696Z" fill="#FFB8B8"/>
<path d="M93 76L93.3 81.9999L94.7889 91.4229L95.25 94L96 90L95.25 80.8888L94.9952 76.7868L93 76Z" fill="#FFB8B8"/>
<path d="M109 75V81.416C109 81.416 108.471 89.665 107.412 91.7273C106.353 93.7896 106 83.4782 106 83.4782L106.83 75.9166L109 75Z" fill="#FFB8B8"/>
<path d="M95.3857 93.7623C95.3857 93.7623 94.6297 95.1175 95.2345 108.896C95.8393 122.674 94.9321 132.612 96.8977 132.612C96.8977 132.612 96.2929 135.548 97.9561 135.774C99.6192 136 100.375 136.226 100.526 135.548C100.678 134.871 100.98 131.708 100.526 131.708C100.526 131.708 100.526 132.612 100.829 128.998C101.131 125.384 101.131 108.218 101.887 105.959L104.306 114.316C104.306 114.316 104.306 118.156 104.76 119.963C105.214 121.77 105.97 132.16 105.97 132.16L105.818 133.741C105.818 133.741 109.447 134.645 109.598 133.741C109.749 132.838 109.749 131.483 109.598 131.031C109.447 130.579 109.447 130.579 109.749 129.676C110.052 128.772 110.052 128.095 109.901 127.417C109.749 126.739 109.749 112.058 109.749 112.058C109.749 112.058 109.447 94.214 107.633 93.3106C105.818 92.4071 95.3857 93.7623 95.3857 93.7623Z" fill="#2F2E41"/>
<path d="M97.5575 134L96.4413 137.247C96.4413 137.247 94.6973 136.203 95.0461 138.871C98.0458 139.219 100.139 138.755 100.139 138.755C100.139 138.755 100.836 139.219 100.976 138.523C101.115 137.827 100.627 135.392 100.208 135.392C99.7898 135.392 97.5575 134 97.5575 134Z" fill="#2F2E41"/>
<path d="M105.867 132.883C105.867 132.883 104.644 137.158 105.103 137.396C105.562 137.633 109.69 138.583 109.995 138.82C110.301 139.058 111.83 139.295 111.983 137.871C112.136 136.446 111.218 135.971 111.218 135.971C111.218 135.971 109.537 135.496 109.078 133.121C108.619 130.746 105.867 132.883 105.867 132.883Z" fill="#2F2E41"/>
<path d="M103.24 61.5086C103.24 61.5086 98.92 60.3642 97.96 61.5086C97 62.653 93 64.9417 93 66.0861C93 67.2305 95.08 78.4453 95.08 78.4453C95.08 78.4453 93.96 95.3819 95.08 95.8397C96.2 96.2974 98.12 94.9242 100.36 96.5263C102.6 98.1284 109 95.153 109 95.153C109 95.153 106.6 80.5051 107.24 77.7586C107.88 75.0122 108.36 65.6283 108.36 65.6283C108.36 65.6283 105.64 61.5086 103.24 61.5086Z" fill="#8985A8"/>
<path d="M94.6132 66L93.5629 66.4211C93.5629 66.4211 91.3123 76.3158 92.2126 76.7368C93.1128 77.1579 95.6635 78 95.9635 78C96.2636 78 94.6132 66 94.6132 66Z" fill="#8985A8"/>
<path d="M105 65L107.441 66.3C107.441 66.3 110.645 74.75 109.883 75.8333C109.12 76.9167 105.763 78 105.763 78L105 65Z" fill="#8985A8"/>
<path d="M99.1413 49.0375C98.9121 48.9751 98.6764 48.9907 98.4517 49.0833C98.2718 49.203 98.1062 49.3662 97.9615 49.5665C97.6989 49.881 97.4185 50.1602 97.1235 50.401C96.8883 50.5929 96.6356 50.7704 96.4714 51.088C96.3938 51.2485 96.3318 51.4248 96.2874 51.6116C96.0046 52.697 95.9286 53.8794 96.0679 55.0262C96.0836 55.1891 96.1162 55.3474 96.1646 55.4951C96.3154 55.9127 96.6485 56.0773 96.9291 56.2962C97.4618 56.7119 97.8657 57.4118 98.3027 58.0303C98.465 58.2738 98.6473 58.4851 98.8454 58.6589C99.4688 59.1698 100.231 59.0031 100.931 58.8225C100.98 58.8223 101.029 58.8074 101.075 58.7787C101.121 58.7499 101.162 58.7078 101.197 58.6548C101.232 58.6018 101.259 58.5389 101.278 58.4698C101.297 58.4008 101.306 58.3268 101.306 58.2523L101.858 54.5184C101.958 53.9652 102.006 53.3935 101.999 52.8202C101.961 51.9138 101.634 50.6582 101.192 50.0144C100.676 49.2642 99.8154 49.1448 99.1413 49.0375Z" fill="#2F2E41"/>
<path d="M80 136C80.5523 136 81 135.105 81 134C81 132.895 80.5523 132 80 132C79.4477 132 79 132.895 79 134C79 135.105 79.4477 136 80 136Z" fill="#D6CF00"/>
<path d="M79.5 139C78.8078 139 78.1311 138.707 77.5555 138.157C76.9799 137.608 76.5313 136.827 76.2664 135.913C76.0015 135 75.9322 133.994 76.0673 133.025C76.2023 132.055 76.5356 131.164 77.0251 130.464C77.5146 129.765 78.1383 129.289 78.8172 129.096C79.4961 128.903 80.1999 129.002 80.8394 129.381C81.4789 129.759 82.0256 130.4 82.4101 131.222C82.7947 132.044 83 133.011 83 134C82.999 135.326 82.6299 136.597 81.9737 137.534C81.3176 138.471 80.4279 138.999 79.5 139ZM79.5 129.385C78.861 129.385 78.2364 129.655 77.7051 130.162C77.1738 130.67 76.7597 131.39 76.5152 132.234C76.2706 133.077 76.2067 134.005 76.3313 134.9C76.456 135.796 76.7637 136.618 77.2155 137.264C77.6673 137.909 78.243 138.349 78.8697 138.527C79.4964 138.705 80.146 138.613 80.7364 138.264C81.3267 137.915 81.8313 137.323 82.1863 136.564C82.5413 135.805 82.7308 134.913 82.7308 134C82.7298 132.776 82.3891 131.603 81.7834 130.738C81.1777 129.873 80.3566 129.386 79.5 129.385V129.385Z" fill="#2F2E41"/>
<path d="M138.5 136C139.328 136 140 135.105 140 134C140 132.895 139.328 132 138.5 132C137.672 132 137 132.895 137 134C137 135.105 137.672 136 138.5 136Z" fill="#D6CF00"/>
<path d="M138.5 139C137.808 139 137.131 138.707 136.556 138.157C135.98 137.608 135.531 136.827 135.266 135.913C135.002 135 134.932 133.994 135.067 133.025C135.202 132.055 135.536 131.164 136.025 130.464C136.515 129.765 137.138 129.289 137.817 129.096C138.496 128.903 139.2 129.002 139.839 129.381C140.479 129.759 141.026 130.4 141.41 131.222C141.795 132.044 142 133.011 142 134C141.999 135.326 141.63 136.597 140.974 137.534C140.318 138.471 139.428 138.999 138.5 139V139ZM138.5 129.385C137.861 129.385 137.236 129.655 136.705 130.162C136.174 130.67 135.76 131.39 135.515 132.234C135.271 133.077 135.207 134.005 135.331 134.9C135.456 135.796 135.764 136.618 136.216 137.264C136.667 137.909 137.243 138.349 137.87 138.527C138.496 138.705 139.146 138.613 139.736 138.264C140.327 137.915 140.831 137.323 141.186 136.564C141.541 135.805 141.731 134.913 141.731 134C141.73 132.776 141.389 131.603 140.783 130.738C140.178 129.873 139.357 129.386 138.5 129.385V129.385Z" fill="#2F2E41"/>
<path d="M138.5 126C139.328 126 140 125.105 140 124C140 122.895 139.328 122 138.5 122C137.672 122 137 122.895 137 124C137 125.105 137.672 126 138.5 126Z" fill="#D6CF00"/>
<path d="M138.5 129C137.808 129 137.131 128.736 136.556 128.242C135.98 127.747 135.531 127.044 135.266 126.222C135.002 125.4 134.932 124.495 135.067 123.622C135.202 122.749 135.536 121.947 136.025 121.318C136.515 120.689 137.138 120.26 137.817 120.086C138.496 119.913 139.2 120.002 139.839 120.343C140.479 120.683 141.026 121.26 141.41 122C141.795 122.74 142 123.61 142 124.5C141.999 125.693 141.63 126.837 140.974 127.681C140.318 128.524 139.428 128.999 138.5 129V129ZM138.5 120.346C137.861 120.346 137.236 120.59 136.705 121.046C136.174 121.503 135.76 122.151 135.515 122.91C135.271 123.669 135.207 124.505 135.331 125.31C135.456 126.116 135.764 126.856 136.216 127.437C136.667 128.018 137.243 128.414 137.87 128.574C138.496 128.734 139.146 128.652 139.736 128.338C140.327 128.023 140.831 127.491 141.186 126.808C141.541 126.125 141.731 125.322 141.731 124.5C141.73 123.399 141.389 122.343 140.783 121.564C140.178 120.785 139.357 120.347 138.5 120.346Z" fill="#2F2E41"/>
</svg>
